<svg width="42" height="42" viewBox="0 0 42 42" fill="none" xmlns="http://www.w3.org/2000/svg">
<mask id="mask0_2149_241" style="mask-type:luminance" maskUnits="userSpaceOnUse" x="0" y="0" width="42" height="42">
<path d="M41.7 0V41.7H-4.95911e-05V0L41.7 0Z" fill="white"/>
</mask>
<g mask="url(#mask0_2149_241)">
<path d="M20.85 0C9.35255 0 -4.95911e-05 9.3526 -4.95911e-05 20.85C-4.95911e-05 32.3474 9.35255 41.7 20.85 41.7C32.3468 41.7 41.7 32.3474 41.7 20.85C41.7 9.3526 32.3468 0 20.85 0ZM26.889 21.9L18.4072 30.3813C18.1171 30.6719 17.7369 30.8208 17.3572 30.8208C16.9776 30.8208 16.5906 30.6719 16.2999 30.3813C15.7192 29.8005 15.7192 28.8547 16.2999 28.274L23.7317 20.85L16.2999 13.4182C15.7192 12.8375 15.7192 11.8995 16.2999 11.3109C16.8885 10.7302 17.8265 10.7302 18.4072 11.3109L26.889 19.7927C27.4697 20.3734 27.4697 21.3193 26.889 21.9Z" fill="#97CECC"/>
</g>
</svg>
