<svg width="30" height="30" viewBox="0 0 30 30" fill="none" xmlns="http://www.w3.org/2000/svg">
<mask id="mask0_38_891" style="mask-type:luminance" maskUnits="userSpaceOnUse" x="0" y="0" width="30" height="30">
<path d="M0 0H30V30H0V0Z" fill="white"/>
</mask>
<g mask="url(#mask0_38_891)">
<path d="M28.9286 0H4.28571C3.6935 0 3.21429 0.479562 3.21429 1.07143V8.57143H1.07143C0.479213 8.57143 0 9.05099 0 9.64286C0 10.2344 0.479213 10.7143 1.07143 10.7143H3.21429V13.9286H1.07143C0.479213 13.9286 0 14.4081 0 15C0 15.5915 0.479213 16.0714 1.07143 16.0714H3.21429V19.2857H1.07143C0.479213 19.2857 0 19.7653 0 20.3571C0 20.9487 0.479213 21.4286 1.07143 21.4286H3.21429V28.9286C3.21429 29.5201 3.6935 30 4.28571 30H28.9286C29.5208 30 30 29.5201 30 28.9286V1.07143C30 0.479562 29.5208 0 28.9286 0ZM27.8571 27.8571H5.35714V21.4286H7.5C8.09222 21.4286 8.57143 20.9487 8.57143 20.3571C8.57143 19.7653 8.09222 19.2857 7.5 19.2857H5.35714V16.0714H7.5C8.09222 16.0714 8.57143 15.5915 8.57143 15C8.57143 14.4081 8.09222 13.9286 7.5 13.9286H5.35714V10.7143H7.5C8.09222 10.7143 8.57143 10.2344 8.57143 9.64286C8.57143 9.05099 8.09222 8.57143 7.5 8.57143H5.35714V2.14286H27.8571V27.8571Z" fill="white"/>
</g>
<path d="M16.6072 13.9286C18.6747 13.9286 20.3572 12.0058 20.3572 9.64289C20.3572 7.27961 18.6747 5.35718 16.6072 5.35718C14.5397 5.35718 12.8572 7.27961 12.8572 9.64289C12.8572 12.0058 14.5397 13.9286 16.6072 13.9286ZM16.6072 7.50003C17.4788 7.50003 18.2143 8.48148 18.2143 9.64289C18.2143 10.8043 17.4788 11.7857 16.6072 11.7857C15.7356 11.7857 15 10.8043 15 9.64289C15 8.48148 15.7356 7.50003 16.6072 7.50003Z" fill="white"/>
<path d="M10.7143 24.6429H22.5C23.0922 24.6429 23.5714 24.1629 23.5714 23.5714V21.4286C23.5714 17.8836 20.6877 15 17.1428 15H16.0714C12.5265 15 9.64282 17.8836 9.64282 21.4286V23.5714C9.64282 24.1629 10.122 24.6429 10.7143 24.6429ZM11.7857 21.4286C11.7857 19.0653 13.7078 17.1429 16.0714 17.1429H17.1428C19.5065 17.1429 21.4285 19.0653 21.4285 21.4286V22.5H11.7857V21.4286Z" fill="white"/>
</svg>
