<svg width="30" height="30" viewBox="0 0 30 30" fill="none" xmlns="http://www.w3.org/2000/svg">
<path d="M16.4811 10.8372V13.1778H19.5096L19.0852 16.3795H16.4811V23.717H13.1786V16.3795H10.3501V13.1778H13.1786V10.8372C13.1786 8.30282 15.2844 6.59277 17.8894 6.59277C19.0356 6.59277 19.7583 6.76202 19.7583 6.76202V9.46654H17.8894C17.1163 9.46654 16.4811 10.0857 16.4811 10.8372Z" fill="white"/>
<mask id="mask0_13_384" style="mask-type:luminance" maskUnits="userSpaceOnUse" x="0" y="0" width="30" height="30">
<path d="M0.267944 0.758423H29.8522V29.5504H0.267944V0.758423Z" fill="white"/>
</mask>
<g mask="url(#mask0_13_384)">
<path d="M15.0601 29.5504C6.91071 29.5504 0.267944 23.0987 0.267944 15.1544C0.267944 7.21101 6.91071 0.758423 15.0601 0.758423C23.223 0.758423 29.8522 7.22329 29.8522 15.1544C29.8522 23.0864 23.223 29.5504 15.0601 29.5504ZM15.0601 1.5468C7.34684 1.5468 1.07802 7.64773 1.07802 15.1544C1.07802 22.662 7.34684 28.762 15.0601 28.762C22.7742 28.762 29.0431 22.662 29.0431 15.1544C29.0431 7.64773 22.7742 1.5468 15.0601 1.5468Z" fill="white"/>
</g>
</svg>
