<svg width="320" height="99" viewBox="0 0 320 99" fill="none" xmlns="http://www.w3.org/2000/svg">
<mask id="mask0_35_346" style="mask-type:luminance" maskUnits="userSpaceOnUse" x="145" y="10" width="40" height="40">
<path d="M145.389 10.2417H185V50H145.389V10.2417Z" fill="white"/>
</mask>
<g mask="url(#mask0_35_346)">
<path d="M160 50C173.748 50 185 38.7516 185 25C185 19.8421 183.438 14.9235 180.468 10.7023C180.233 10.3117 179.762 10.236 179.371 10.5469C178.985 10.7821 178.906 11.2524 179.217 11.643C181.951 15.5493 183.438 20.2328 183.438 25C183.438 37.8906 172.891 48.4375 160 48.4375C155.157 48.4375 150.545 46.9547 146.639 44.2204C146.249 43.9852 145.782 44.0609 145.547 44.3758C145.312 44.7664 145.392 45.2328 145.703 45.4679C149.924 48.4375 154.842 50 160 50Z" fill="#12908E"/>
</g>
<mask id="mask1_35_346" style="mask-type:luminance" maskUnits="userSpaceOnUse" x="135" y="0" width="40" height="40">
<path d="M135 0H174.61V39.7571H135V0Z" fill="white"/>
</mask>
<g mask="url(#mask1_35_346)">
<path d="M139.532 39.2977C139.767 39.6883 140.234 39.764 140.624 39.4531C141.015 39.2179 141.095 38.7516 140.78 38.361C138.045 34.4547 136.562 29.8429 136.562 25C136.562 12.1094 147.109 1.5625 160 1.5625C164.297 1.5625 168.438 2.73438 172.109 4.92268L169.14 5.85938C168.749 6.01482 168.514 6.40545 168.594 6.8758C168.749 7.26643 169.14 7.50161 169.61 7.42188L174.062 5.93509C174.529 5.77964 174.688 5.23357 174.529 4.84295L173.202 0.701519C173.046 0.310894 172.655 0.0797311 172.185 0.155447C171.794 0.310894 171.563 0.701519 171.639 1.17188L172.345 3.36018C168.673 1.17188 164.377 0 160 0C146.248 0 135 11.2484 135 25C135 30.1538 136.562 35.0765 139.532 39.2977Z" fill="#12908E"/>
</g>
<path d="M160 7.96796C169.375 7.96796 177.028 15.625 177.028 25C177.028 34.375 169.375 42.0321 160 42.0321C150.625 42.0321 142.968 34.375 142.968 25C142.968 15.625 150.625 7.96796 160 7.96796ZM160 43.5946C170.232 43.5946 178.59 35.236 178.59 25C178.59 14.764 170.232 6.40546 160 6.40546C149.764 6.40546 141.406 14.764 141.406 25C141.406 35.236 149.764 43.5946 160 43.5946Z" fill="#12908E"/>
<path d="M157.421 20.3922C157.421 19.4515 158.047 18.5946 159.063 18.2039V22.5008C157.891 22.0305 157.421 21.1735 157.421 20.3922ZM160.781 26.5625C162.029 26.9531 162.89 27.6547 162.89 28.9063C162.89 30.1539 162.029 31.1703 160.781 31.4055V26.5625ZM157.03 28.5156L153.75 28.8265C154.296 32.1867 156.173 33.9047 158.984 34.215V36.4836H160.781V34.1398C164.141 33.6735 165.935 31.3297 165.935 28.4399C165.935 27.1086 165.544 26.0164 164.843 25.1555C164.141 24.2985 162.734 23.593 160.781 23.0469V18.2039C161.562 18.5148 162.109 19.2204 162.264 20.1571L165.389 19.7664C165.154 18.5148 164.688 17.4984 163.906 16.7969C163.125 16.0156 162.109 15.625 160.781 15.4696V14.218H158.984V15.4696C156.014 15.7805 154.296 17.889 154.296 20.468C154.296 23.4375 156.094 25.1555 158.984 26.0164V31.25C158.123 30.8594 157.266 29.843 157.03 28.5156Z" fill="#12908E"/>
<path d="M2.12815 68.13H11.3281V70.93H5.02815V74.27H10.4881V77.07H5.02815V82.85H2.12815V68.13ZM14.1203 68.13H17.0203V82.85H14.1203V68.13ZM33.9996 83.45L22.8396 73.37L23.6996 73.85L23.7596 82.85H20.8196V67.55H20.9396L31.8596 77.59L31.2196 77.31L31.1596 68.13H34.0796V83.45H33.9996ZM36.2103 82.85L42.8503 67.55H43.0103L49.6503 82.85H46.2903L42.0503 72.09L44.1503 70.65L39.0703 82.85H36.2103ZM40.7503 77.53H45.1703L46.1903 79.97H39.8503L40.7503 77.53ZM64.9761 83.45L53.8161 73.37L54.6761 73.85L54.7361 82.85H51.7961V67.55H51.9161L62.8361 77.59L62.1961 77.31L62.1361 68.13H65.0561V83.45H64.9761ZM79.8869 81.63C79.7269 81.7633 79.4269 81.9433 78.9869 82.17C78.5602 82.3966 78.0336 82.5966 77.4069 82.77C76.7802 82.9433 76.0869 83.0233 75.3269 83.01C74.1669 82.9833 73.1269 82.7766 72.2069 82.39C71.3002 81.99 70.5269 81.45 69.8869 80.77C69.2602 80.09 68.7802 79.31 68.4469 78.43C68.1136 77.55 67.9469 76.61 67.9469 75.61C67.9469 74.49 68.1136 73.4633 68.4469 72.53C68.7936 71.5966 69.2802 70.79 69.9069 70.11C70.5469 69.43 71.3069 68.9033 72.1869 68.53C73.0669 68.1566 74.0402 67.97 75.1069 67.97C76.0936 67.97 76.9669 68.1033 77.7269 68.37C78.4869 68.6366 79.1069 68.9233 79.5869 69.23L78.4469 71.97C78.1136 71.7166 77.6669 71.4566 77.1069 71.19C76.5602 70.91 75.9269 70.77 75.2069 70.77C74.6469 70.77 74.1069 70.89 73.5869 71.13C73.0802 71.3566 72.6269 71.6833 72.2269 72.11C71.8402 72.5366 71.5336 73.0366 71.3069 73.61C71.0802 74.17 70.9669 74.7833 70.9669 75.45C70.9669 76.1566 71.0669 76.8033 71.2669 77.39C71.4802 77.9766 71.7802 78.4833 72.1669 78.91C72.5536 79.3233 73.0136 79.6433 73.5469 79.87C74.0936 80.0966 74.7069 80.21 75.3869 80.21C76.1736 80.21 76.8469 80.0833 77.4069 79.83C77.9669 79.5766 78.3936 79.31 78.6869 79.03L79.8869 81.63ZM82.7922 68.13H85.6922V82.85H82.7922V68.13ZM87.8314 82.85L94.4714 67.55H94.6314L101.271 82.85H97.9114L93.6714 72.09L95.7714 70.65L90.6914 82.85H87.8314ZM92.3714 77.53H96.7914L97.8114 79.97H91.4714L92.3714 77.53ZM103.417 68.13H106.317V80.05H113.237V82.85H103.417V68.13ZM122.734 82.85V68.13H127.134C128.614 68.13 129.874 68.35 130.914 68.79C131.954 69.23 132.787 69.8166 133.414 70.55C134.054 71.2833 134.52 72.1033 134.814 73.01C135.107 73.9166 135.254 74.83 135.254 75.75C135.254 76.8433 135.054 77.83 134.654 78.71C134.267 79.5766 133.734 80.3233 133.054 80.95C132.374 81.5633 131.587 82.0366 130.694 82.37C129.8 82.69 128.854 82.85 127.854 82.85H122.734ZM125.634 80.05H127.354C128.087 80.05 128.754 79.9566 129.354 79.77C129.954 79.57 130.467 79.2833 130.894 78.91C131.334 78.5366 131.667 78.07 131.894 77.51C132.134 76.9366 132.254 76.2833 132.254 75.55C132.254 74.59 132.094 73.81 131.774 73.21C131.467 72.5966 131.08 72.1233 130.614 71.79C130.16 71.4566 129.694 71.23 129.214 71.11C128.734 70.9766 128.327 70.91 127.994 70.91H125.634V80.05ZM137.263 75.51C137.263 74.4966 137.457 73.5366 137.843 72.63C138.23 71.7233 138.763 70.9233 139.443 70.23C140.137 69.5233 140.937 68.97 141.843 68.57C142.75 68.17 143.723 67.97 144.763 67.97C145.79 67.97 146.757 68.17 147.663 68.57C148.57 68.97 149.37 69.5233 150.063 70.23C150.77 70.9233 151.317 71.7233 151.703 72.63C152.103 73.5366 152.303 74.4966 152.303 75.51C152.303 76.55 152.103 77.5233 151.703 78.43C151.317 79.3366 150.77 80.1366 150.063 80.83C149.37 81.51 148.57 82.0433 147.663 82.43C146.757 82.8166 145.79 83.01 144.763 83.01C143.723 83.01 142.75 82.8166 141.843 82.43C140.937 82.0433 140.137 81.51 139.443 80.83C138.763 80.1366 138.23 79.3366 137.843 78.43C137.457 77.5233 137.263 76.55 137.263 75.51ZM140.263 75.51C140.263 76.1633 140.377 76.7766 140.603 77.35C140.843 77.91 141.17 78.41 141.583 78.85C142.01 79.2766 142.497 79.61 143.043 79.85C143.603 80.09 144.21 80.21 144.863 80.21C145.49 80.21 146.07 80.09 146.603 79.85C147.15 79.61 147.623 79.2766 148.023 78.85C148.423 78.41 148.737 77.91 148.963 77.35C149.19 76.7766 149.303 76.1633 149.303 75.51C149.303 74.8433 149.183 74.2233 148.943 73.65C148.717 73.0766 148.397 72.5766 147.983 72.15C147.583 71.71 147.11 71.37 146.563 71.13C146.017 70.89 145.423 70.77 144.783 70.77C144.143 70.77 143.55 70.89 143.003 71.13C142.457 71.37 141.977 71.71 141.563 72.15C141.15 72.5766 140.83 73.0766 140.603 73.65C140.377 74.2233 140.263 74.8433 140.263 75.51ZM166.235 81.63C166.075 81.7633 165.775 81.9433 165.335 82.17C164.908 82.3966 164.381 82.5966 163.755 82.77C163.128 82.9433 162.435 83.0233 161.675 83.01C160.515 82.9833 159.475 82.7766 158.555 82.39C157.648 81.99 156.875 81.45 156.235 80.77C155.608 80.09 155.128 79.31 154.795 78.43C154.461 77.55 154.295 76.61 154.295 75.61C154.295 74.49 154.461 73.4633 154.795 72.53C155.141 71.5966 155.628 70.79 156.255 70.11C156.895 69.43 157.655 68.9033 158.535 68.53C159.415 68.1566 160.388 67.97 161.455 67.97C162.441 67.97 163.315 68.1033 164.075 68.37C164.835 68.6366 165.455 68.9233 165.935 69.23L164.795 71.97C164.461 71.7166 164.015 71.4566 163.455 71.19C162.908 70.91 162.275 70.77 161.555 70.77C160.995 70.77 160.455 70.89 159.935 71.13C159.428 71.3566 158.975 71.6833 158.575 72.11C158.188 72.5366 157.881 73.0366 157.655 73.61C157.428 74.17 157.315 74.7833 157.315 75.45C157.315 76.1566 157.415 76.8033 157.615 77.39C157.828 77.9766 158.128 78.4833 158.515 78.91C158.901 79.3233 159.361 79.6433 159.895 79.87C160.441 80.0966 161.055 80.21 161.735 80.21C162.521 80.21 163.195 80.0833 163.755 79.83C164.315 79.5766 164.741 79.31 165.035 79.03L166.235 81.63ZM171.74 77.41C171.74 77.8766 171.88 78.3233 172.16 78.75C172.44 79.1766 172.807 79.5233 173.26 79.79C173.727 80.0566 174.233 80.19 174.78 80.19C175.38 80.19 175.913 80.0566 176.38 79.79C176.847 79.5233 177.213 79.1766 177.48 78.75C177.76 78.3233 177.9 77.8766 177.9 77.41V68.13H180.76V77.47C180.76 78.55 180.493 79.51 179.96 80.35C179.427 81.1766 178.707 81.83 177.8 82.31C176.893 82.7766 175.887 83.01 174.78 83.01C173.687 83.01 172.687 82.7766 171.78 82.31C170.887 81.83 170.173 81.1766 169.64 80.35C169.107 79.51 168.84 78.55 168.84 77.47V68.13H171.74V77.41ZM184.257 82.85V67.53H184.277L192.457 79.13L191.217 78.85L199.377 67.53H199.417V82.85H196.517V74.07L196.697 75.57L191.717 82.65H191.677L186.557 75.57L187.057 74.19V82.85H184.257ZM203.222 68.13H213.262V70.93H206.122V74.07H212.442V76.87H206.122V80.05H213.542V82.85H203.222V68.13ZM229.722 83.45L218.562 73.37L219.422 73.85L219.482 82.85H216.542V67.55H216.662L227.582 77.59L226.942 77.31L226.882 68.13H229.802V83.45H229.722ZM232.593 68.13H242.513V70.93H238.933V82.85H236.033V70.93H232.593V68.13ZM253.172 71.69C252.612 71.3833 252.038 71.13 251.452 70.93C250.878 70.73 250.338 70.63 249.832 70.63C249.205 70.63 248.712 70.7566 248.352 71.01C247.992 71.2633 247.812 71.6433 247.812 72.15C247.812 72.4966 247.945 72.81 248.212 73.09C248.492 73.3566 248.845 73.5966 249.272 73.81C249.712 74.0233 250.165 74.2166 250.632 74.39C251.058 74.55 251.478 74.7433 251.892 74.97C252.318 75.1833 252.698 75.4566 253.032 75.79C253.365 76.11 253.632 76.5166 253.832 77.01C254.032 77.49 254.132 78.0833 254.132 78.79C254.132 79.5366 253.938 80.23 253.552 80.87C253.165 81.51 252.598 82.03 251.852 82.43C251.105 82.8166 250.185 83.01 249.092 83.01C248.532 83.01 247.958 82.9566 247.372 82.85C246.798 82.73 246.232 82.5566 245.672 82.33C245.112 82.09 244.572 81.79 244.052 81.43L245.332 79.17C245.678 79.4233 246.052 79.65 246.452 79.85C246.865 80.0366 247.278 80.1833 247.692 80.29C248.105 80.3966 248.485 80.45 248.832 80.45C249.178 80.45 249.525 80.4033 249.872 80.31C250.232 80.2033 250.525 80.03 250.752 79.79C250.992 79.55 251.112 79.2166 251.112 78.79C251.112 78.4966 251.012 78.23 250.812 77.99C250.625 77.75 250.365 77.53 250.032 77.33C249.712 77.13 249.358 76.9566 248.972 76.81C248.518 76.6366 248.052 76.4366 247.572 76.21C247.092 75.9833 246.638 75.71 246.212 75.39C245.798 75.0566 245.458 74.65 245.192 74.17C244.938 73.6766 244.812 73.0766 244.812 72.37C244.812 71.5166 244.998 70.7766 245.372 70.15C245.758 69.5233 246.298 69.03 246.992 68.67C247.685 68.2966 248.485 68.09 249.392 68.05C250.578 68.05 251.538 68.19 252.272 68.47C253.018 68.75 253.685 69.0833 254.272 69.47L253.172 71.69Z" fill="#333333"/>
<mask id="mask2_35_346" style="mask-type:luminance" maskUnits="userSpaceOnUse" x="278" y="57" width="42" height="42">
<path d="M319.85 57V98.7H278.15V57H319.85Z" fill="white"/>
</mask>
<g mask="url(#mask2_35_346)">
<path d="M299 57C287.503 57 278.15 66.3526 278.15 77.85C278.15 89.3474 287.503 98.7 299 98.7C310.497 98.7 319.85 89.3474 319.85 77.85C319.85 66.3526 310.497 57 299 57ZM305.039 78.9L296.557 87.3813C296.267 87.6719 295.887 87.8208 295.507 87.8208C295.128 87.8208 294.741 87.6719 294.45 87.3813C293.869 86.8005 293.869 85.8547 294.45 85.274L301.882 77.85L294.45 70.4182C293.869 69.8375 293.869 68.8995 294.45 68.3109C295.039 67.7302 295.977 67.7302 296.557 68.3109L305.039 76.7927C305.62 77.3734 305.62 78.3193 305.039 78.9Z" fill="#97CECC"/>
</g>
</svg>
