<svg width="577" height="99" viewBox="0 0 577 99" fill="none" xmlns="http://www.w3.org/2000/svg">
<g clip-path="url(#clip0_35_326)">
<mask id="mask0_35_326" style="mask-type:luminance" maskUnits="userSpaceOnUse" x="263" y="1" width="49" height="48">
<path d="M263.5 1.03699H311.4V48.9333H263.5V1.03699Z" fill="white"/>
</mask>
<g mask="url(#mask0_35_326)">
<path d="M311.02 1.05627H274.918C274.708 1.05627 274.538 1.22659 274.538 1.43596V17.4245C273.208 20.6787 273.208 24.4011 274.538 27.6672V33.1386C274.205 33.1407 273.879 33.2787 273.642 33.5406L264.236 43.899C263.751 44.4339 263.504 45.125 263.542 45.8443C263.579 46.5657 263.898 47.2292 264.439 47.712C264.934 48.1568 265.579 48.4016 266.254 48.4016C267.024 48.4016 267.76 48.0782 268.275 47.5136L274.538 40.6125V48.5386C274.538 48.7479 274.708 48.9183 274.918 48.9183H311.02C311.23 48.9183 311.399 48.7479 311.399 48.5386V1.43596C311.399 1.22659 311.23 1.05627 311.02 1.05627ZM275.273 17.6302C275.834 16.275 276.627 15.0276 277.63 13.9229C280.159 11.1365 283.73 9.67867 287.327 9.67867C289.791 9.67867 292.269 10.3641 294.43 11.7761C294.969 12.124 295.492 12.525 295.986 12.9672C296.729 13.6297 297.39 14.3709 297.949 15.1698C298.581 16.0672 299.093 17.0375 299.473 18.0547C299.479 18.0709 299.486 18.086 299.494 18.1011C299.83 19.0172 300.061 19.9703 300.181 20.9365C300.653 24.6563 299.473 28.3834 296.946 31.163C294.507 33.8495 291.016 35.4032 287.368 35.4255C286.652 35.4349 285.925 35.3735 285.214 35.2594C283.114 34.9287 281.103 34.0714 279.396 32.7776C279.144 32.5891 278.88 32.3724 278.589 32.1141C278.334 31.8886 278.082 31.6453 277.841 31.3917C276.739 30.2354 275.873 28.9094 275.269 27.4516C275.268 27.4505 275.268 27.45 275.268 27.449C273.973 24.3224 273.975 20.7443 275.273 17.6302ZM285.535 36.0714C286.018 36.1328 286.504 36.1688 286.99 36.1797V44.6302H285.535V36.0714ZM275.967 33.9797L277.578 32.2047C277.745 32.3693 277.914 32.5302 278.084 32.6818C278.27 32.8469 278.444 32.9922 278.613 33.1287L277.001 34.9037L275.967 33.9797ZM277.052 31.6542L275.4 33.4735L275.374 33.4505C275.352 33.4302 275.322 33.4188 275.297 33.4005V29.2313C275.789 30.0969 276.375 30.9068 277.052 31.6542ZM267.712 47.0026C267.342 47.4089 266.81 47.6422 266.253 47.6422C265.766 47.6422 265.302 47.4667 264.945 47.1464C264.556 46.7985 264.327 46.3229 264.3 45.8052C264.273 45.2896 264.45 44.7943 264.798 44.4104L274.204 34.0516C274.294 33.9511 274.419 33.8979 274.547 33.8979C274.617 33.8979 274.688 33.9141 274.755 33.9459C274.802 33.9683 274.839 33.9917 274.868 34.0177L275.166 34.2839C275.168 34.286 275.169 34.2886 275.171 34.2901C275.173 34.2927 275.176 34.2933 275.178 34.2953L277.08 35.9948C277.172 36.0771 277.227 36.1896 277.233 36.3115C277.24 36.4344 277.197 36.5521 277.113 36.6448L274.636 39.3719L267.712 47.0026ZM310.64 48.1584H275.298V39.775L277.676 37.1558C277.897 36.9125 278.01 36.599 277.993 36.2719C277.977 35.9459 277.832 35.6459 277.588 35.4282L277.568 35.4099L279.223 33.587C280.877 34.775 282.783 35.586 284.776 35.949V44.6297H283.275V38.0808C283.275 37.8714 283.105 37.7011 282.895 37.7011H280.681C280.471 37.7011 280.301 37.8714 280.301 38.0808V44.6297H278.409C278.199 44.6297 278.029 44.8 278.029 45.0094C278.029 45.2193 278.199 45.3896 278.409 45.3896H306.678C306.888 45.3896 307.058 45.2193 307.058 45.0094C307.058 44.8 306.888 44.6297 306.678 44.6297H305.653V31.9615C305.653 31.7516 305.482 31.5818 305.272 31.5818H303.062C302.852 31.5818 302.682 31.7516 302.682 31.9615V44.6297H301.178V35.3271C301.178 35.1172 301.007 34.9469 300.798 34.9469H298.583C298.373 34.9469 298.203 35.1172 298.203 35.3271V44.6297H296.703V38.0808C296.703 37.8714 296.533 37.7011 296.323 37.7011H294.108C293.899 37.7011 293.729 37.8714 293.729 38.0808V44.6297H292.224V42.3735C292.224 42.1636 292.054 41.9933 291.845 41.9933H289.634C289.424 41.9933 289.254 42.1636 289.254 42.3735V44.6297H287.749V36.1735C291.472 36.0474 295.011 34.424 297.508 31.674C299.411 29.5808 300.588 26.9797 300.933 24.2349H305.284C305.494 24.2349 305.664 24.0651 305.664 23.8552C305.664 23.6459 305.494 23.4755 305.284 23.4755H301.007C301.057 22.7448 301.048 22.0078 300.978 21.2683H305.284C305.494 21.2683 305.664 21.0985 305.664 20.8886C305.664 20.6787 305.494 20.5089 305.284 20.5089H300.884C300.772 19.761 300.598 19.0224 300.363 18.3016H305.283C305.493 18.3016 305.664 18.1318 305.664 17.9219C305.664 17.712 305.493 17.5422 305.283 17.5422H300.084C299.78 16.775 299.406 16.0344 298.965 15.3313H305.284C305.494 15.3313 305.664 15.161 305.664 14.9516C305.664 14.7417 305.494 14.5714 305.284 14.5714H298.451C297.883 13.787 297.228 13.0558 296.493 12.4005C296.272 12.2031 296.043 12.0177 295.812 11.8365H305.284C305.494 11.8365 305.664 11.6662 305.664 11.4568C305.664 11.2469 305.494 11.0771 305.284 11.0771H294.745C289.131 7.47971 281.552 8.47242 277.068 13.412C276.383 14.1667 275.792 14.9844 275.298 15.8547V1.81617H310.64V48.1584ZM282.515 44.6297H281.06V38.461H282.515V44.6297ZM295.943 44.6297H294.489V38.461H295.943V44.6297ZM304.893 44.6297H303.442V32.3412H304.893V44.6297Z" fill="#12908E"/>
</g>
<path d="M280.435 26.7001C280.436 26.7006 280.436 26.7006 280.436 26.7011C280.436 26.7021 280.437 26.7027 280.437 26.7037C280.447 26.7188 280.459 26.7303 280.47 26.7433C280.48 26.7553 280.489 26.7688 280.499 26.7792C280.514 26.7933 280.532 26.8032 280.548 26.8146C280.558 26.8214 280.567 26.8297 280.578 26.8355C280.597 26.8464 280.618 26.8532 280.639 26.86C280.648 26.8631 280.657 26.8683 280.666 26.8704C280.697 26.8787 280.729 26.8823 280.761 26.8823C280.794 26.8823 280.829 26.8777 280.862 26.8683C280.871 26.8657 280.88 26.86 280.889 26.8568C280.912 26.8485 280.936 26.8407 280.958 26.8271L286.907 23.2157V30.1308C286.907 30.3402 287.077 30.5105 287.286 30.5105C290.221 30.5105 292.921 28.9251 294.336 26.3693C294.336 26.3693 294.336 26.3693 294.336 26.3688C294.336 26.3688 294.336 26.3688 294.336 26.3683H294.337C294.341 26.361 294.353 26.3417 294.356 26.3344C294.45 26.1495 294.372 25.9365 294.189 25.8391C294.167 25.8277 294.143 25.8266 294.121 25.8193L287.667 22.3146V14.9516C287.667 14.7417 287.496 14.5714 287.286 14.5714C285.68 14.5714 284.13 15.0402 282.806 15.9271C281.04 17.11 279.799 18.9698 279.405 21.0256C279.306 21.51 279.256 22.0193 279.256 22.5412C279.256 24.0162 279.665 25.4542 280.435 26.699C280.435 26.6995 280.435 26.6995 280.435 26.7001ZM286.906 21.3037L283.554 16.3579C284.57 15.7516 285.715 15.4058 286.906 15.3448V21.3037ZM280.093 21.549L286.245 22.7282L280.895 25.9761C280.32 24.9282 280.016 23.7495 280.016 22.5412C280.016 22.2016 280.047 21.8725 280.093 21.549Z" fill="#12908E"/>
<path d="M285.946 25.0896C285.822 25.0193 285.67 25.0245 285.551 25.1021L280.07 28.688C279.976 28.7495 279.914 28.8495 279.901 28.9609C279.888 29.0724 279.924 29.1838 280.001 29.2661C281.465 30.8281 283.353 31.8589 285.458 32.2474C285.482 32.2516 285.504 32.2536 285.528 32.2536C285.614 32.2536 285.697 32.2245 285.765 32.1703C285.852 32.101 285.903 31.9979 285.907 31.8875L286.139 25.4338C286.144 25.2922 286.07 25.1594 285.946 25.0896ZM285.164 31.4104C283.54 31.0307 282.071 30.2302 280.874 29.0703L285.353 26.1396L285.164 31.4104Z" fill="#12908E"/>
<path d="M288.834 21.8385L296.283 25.6297C296.338 25.6568 296.397 25.6708 296.456 25.6708C296.507 25.6708 296.557 25.6609 296.605 25.6401C296.709 25.5963 296.788 25.5083 296.82 25.4005C297.1 24.4698 297.242 23.5078 297.242 22.5411C297.242 17.7651 293.807 13.6797 289.074 12.8265C288.963 12.8068 288.849 12.8364 288.763 12.9088C288.677 12.9812 288.627 13.088 288.627 13.2005V21.5C288.627 21.6427 288.707 21.7739 288.834 21.8385ZM289.386 13.6661C293.525 14.6224 296.482 18.2849 296.482 22.5411C296.482 23.2823 296.392 24.0203 296.213 24.7411L289.386 21.2667V13.6661Z" fill="#12908E"/>
<path d="M287.286 34.3432C293.846 34.3432 299.183 29.0484 299.183 22.5411C299.183 16.0354 293.846 10.7427 287.286 10.7427C280.728 10.7427 275.393 16.0354 275.393 22.5411C275.393 29.0484 280.728 34.3432 287.286 34.3432ZM287.286 11.5021C293.428 11.5021 298.423 16.4541 298.423 22.5411C298.423 28.6297 293.428 33.5833 287.286 33.5833C281.147 33.5833 276.153 28.6297 276.153 22.5411C276.153 16.4541 281.147 11.5021 287.286 11.5021Z" fill="#12908E"/>
<path d="M282.58 7.22861H305.284C305.494 7.22861 305.663 7.05882 305.663 6.84893C305.663 6.63955 305.494 6.46924 305.284 6.46924H282.58C282.37 6.46924 282.2 6.63955 282.2 6.84893C282.2 7.05882 282.37 7.22861 282.58 7.22861Z" fill="#12908E"/>
</g>
<path d="M13.2547 80.01H17.8147V82.85H9.45471L13.2547 80.01ZM1.95471 75.51C1.95471 74.4966 2.14805 73.5366 2.53471 72.63C2.92138 71.7233 3.45471 70.9233 4.13471 70.23C4.82805 69.5233 5.62805 68.97 6.53471 68.57C7.44138 68.17 8.41471 67.97 9.45471 67.97C10.4814 67.97 11.448 68.17 12.3547 68.57C13.2614 68.97 14.0614 69.5233 14.7547 70.23C15.4614 70.9233 16.008 71.7233 16.3947 72.63C16.7947 73.5366 16.9947 74.4966 16.9947 75.51C16.9947 76.55 16.7947 77.5233 16.3947 78.43C16.008 79.3366 15.4614 80.1366 14.7547 80.83C14.0614 81.51 13.2614 82.0433 12.3547 82.43C11.448 82.8166 10.4814 83.01 9.45471 83.01C8.41471 83.01 7.44138 82.8166 6.53471 82.43C5.62805 82.0433 4.82805 81.51 4.13471 80.83C3.45471 80.1366 2.92138 79.3366 2.53471 78.43C2.14805 77.5233 1.95471 76.55 1.95471 75.51ZM4.95471 75.51C4.95471 76.15 5.06805 76.7566 5.29471 77.33C5.53471 77.89 5.86138 78.39 6.27471 78.83C6.70138 79.2566 7.18805 79.59 7.73471 79.83C8.29471 80.07 8.90138 80.19 9.55471 80.19C10.1814 80.19 10.7614 80.07 11.2947 79.83C11.8414 79.59 12.3147 79.2566 12.7147 78.83C13.1147 78.4033 13.428 77.91 13.6547 77.35C13.8814 76.7766 13.9947 76.1633 13.9947 75.51C13.9947 74.87 13.8747 74.27 13.6347 73.71C13.408 73.1366 13.088 72.6366 12.6747 72.21C12.2747 71.7833 11.8014 71.45 11.2547 71.21C10.708 70.97 10.1147 70.85 9.47471 70.85C8.83471 70.85 8.24138 70.97 7.69471 71.21C7.14805 71.45 6.66805 71.7833 6.25471 72.21C5.84138 72.6366 5.52138 73.1366 5.29471 73.71C5.06805 74.27 4.95471 74.87 4.95471 75.51ZM23.3063 77.41C23.3063 77.8766 23.4463 78.3233 23.7263 78.75C24.0063 79.1766 24.3729 79.5233 24.8263 79.79C25.2929 80.0566 25.7996 80.19 26.3463 80.19C26.9463 80.19 27.4796 80.0566 27.9463 79.79C28.4129 79.5233 28.7796 79.1766 29.0463 78.75C29.3263 78.3233 29.4663 77.8766 29.4663 77.41V68.13H32.3263V77.47C32.3263 78.55 32.0596 79.51 31.5263 80.35C30.9929 81.1766 30.2729 81.83 29.3663 82.31C28.4596 82.7766 27.4529 83.01 26.3463 83.01C25.2529 83.01 24.2529 82.7766 23.3463 82.31C22.4529 81.83 21.7396 81.1766 21.2063 80.35C20.6729 79.51 20.4063 78.55 20.4063 77.47V68.13H23.3063V77.41ZM33.7728 82.85L40.4128 67.55H40.5728L47.2128 82.85H43.8528L39.6128 72.09L41.7128 70.65L36.6328 82.85H33.7728ZM38.3128 77.53H42.7328L43.7528 79.97H37.4128L38.3128 77.53ZM53.8186 68.13C54.7386 68.13 55.5586 68.25 56.2786 68.49C56.9986 68.7166 57.5986 69.05 58.0786 69.49C58.572 69.9166 58.9453 70.4366 59.1986 71.05C59.452 71.65 59.5786 72.33 59.5786 73.09C59.5786 73.69 59.4853 74.29 59.2986 74.89C59.1253 75.49 58.832 76.0366 58.4186 76.53C58.0186 77.0233 57.4853 77.4233 56.8186 77.73C56.152 78.0233 55.3253 78.17 54.3386 78.17H52.2586V82.85H49.3586V68.13H53.8186ZM54.3186 75.37C54.7586 75.37 55.1253 75.2966 55.4186 75.15C55.712 75.0033 55.9386 74.8166 56.0986 74.59C56.272 74.3633 56.392 74.13 56.4586 73.89C56.5386 73.6366 56.5786 73.4033 56.5786 73.19C56.5786 73.03 56.552 72.83 56.4986 72.59C56.4586 72.3366 56.3653 72.0833 56.2186 71.83C56.072 71.5766 55.8453 71.3633 55.5386 71.19C55.2453 71.0166 54.8453 70.93 54.3386 70.93H52.2586V75.37H54.3186ZM57.0386 77.17L60.6786 82.85H57.2986L53.5786 77.25L57.0386 77.17ZM61.7766 68.13H71.6966V70.93H68.1166V82.85H65.2166V70.93H61.7766V68.13ZM74.4953 68.13H84.5353V70.93H77.3953V74.07H83.7153V76.87H77.3953V80.05H84.8153V82.85H74.4953V68.13ZM92.2756 68.13C93.1956 68.13 94.0156 68.25 94.7356 68.49C95.4556 68.7166 96.0556 69.05 96.5356 69.49C97.029 69.9166 97.4023 70.4366 97.6556 71.05C97.909 71.65 98.0356 72.33 98.0356 73.09C98.0356 73.69 97.9423 74.29 97.7556 74.89C97.5823 75.49 97.289 76.0366 96.8757 76.53C96.4756 77.0233 95.9423 77.4233 95.2756 77.73C94.609 78.0233 93.7823 78.17 92.7956 78.17H90.7156V82.85H87.8156V68.13H92.2756ZM92.7756 75.37C93.2156 75.37 93.5823 75.2966 93.8757 75.15C94.169 75.0033 94.3956 74.8166 94.5556 74.59C94.729 74.3633 94.849 74.13 94.9156 73.89C94.9956 73.6366 95.0357 73.4033 95.0357 73.19C95.0357 73.03 95.009 72.83 94.9556 72.59C94.9156 72.3366 94.8223 72.0833 94.6756 71.83C94.529 71.5766 94.3023 71.3633 93.9956 71.19C93.7023 71.0166 93.3023 70.93 92.7956 70.93H90.7156V75.37H92.7756ZM95.4957 77.17L99.1356 82.85H95.7556L92.0356 77.25L95.4957 77.17ZM101.527 68.13H104.427V80.05H111.347V82.85H101.527V68.13ZM115.757 78.27L110.337 68.13H113.917L117.717 75.77L116.857 75.83L120.597 68.13H124.177L118.657 78.27V82.85H115.757V78.27ZM132.874 68.13H142.074V70.93H135.774V74.27H141.234V77.07H135.774V82.85H132.874V68.13ZM144.866 68.13H147.766V82.85H144.866V68.13ZM164.746 83.45L153.586 73.37L154.446 73.85L154.506 82.85H151.566V67.55H151.686L162.606 77.59L161.966 77.31L161.906 68.13H164.826V83.45H164.746ZM166.956 82.85L173.596 67.55H173.756L180.396 82.85H177.036L172.796 72.09L174.896 70.65L169.816 82.85H166.956ZM171.496 77.53H175.916L176.936 79.97H170.596L171.496 77.53ZM195.722 83.45L184.562 73.37L185.422 73.85L185.482 82.85H182.542V67.55H182.662L193.582 77.59L192.942 77.31L192.882 68.13H195.802V83.45H195.722ZM210.633 81.63C210.473 81.7633 210.173 81.9433 209.733 82.17C209.306 82.3966 208.78 82.5966 208.153 82.77C207.526 82.9433 206.833 83.0233 206.073 83.01C204.913 82.9833 203.873 82.7766 202.953 82.39C202.046 81.99 201.273 81.45 200.633 80.77C200.006 80.09 199.526 79.31 199.193 78.43C198.86 77.55 198.693 76.61 198.693 75.61C198.693 74.49 198.86 73.4633 199.193 72.53C199.54 71.5966 200.026 70.79 200.653 70.11C201.293 69.43 202.053 68.9033 202.933 68.53C203.813 68.1566 204.786 67.97 205.853 67.97C206.84 67.97 207.713 68.1033 208.473 68.37C209.233 68.6366 209.853 68.9233 210.333 69.23L209.193 71.97C208.86 71.7166 208.413 71.4566 207.853 71.19C207.306 70.91 206.673 70.77 205.953 70.77C205.393 70.77 204.853 70.89 204.333 71.13C203.826 71.3566 203.373 71.6833 202.973 72.11C202.586 72.5366 202.28 73.0366 202.053 73.61C201.826 74.17 201.713 74.7833 201.713 75.45C201.713 76.1566 201.813 76.8033 202.013 77.39C202.226 77.9766 202.526 78.4833 202.913 78.91C203.3 79.3233 203.76 79.6433 204.293 79.87C204.84 80.0966 205.453 80.21 206.133 80.21C206.92 80.21 207.593 80.0833 208.153 79.83C208.713 79.5766 209.14 79.31 209.433 79.03L210.633 81.63ZM213.538 68.13H216.438V82.85H213.538V68.13ZM218.578 82.85L225.218 67.55H225.378L232.018 82.85H228.658L224.418 72.09L226.518 70.65L221.438 82.85H218.578ZM223.118 77.53H227.538L228.558 79.97H222.218L223.118 77.53ZM234.163 68.13H237.063V80.05H243.983V82.85H234.163V68.13ZM257.94 68.13C259.153 68.13 260.18 68.3366 261.02 68.75C261.86 69.15 262.5 69.7233 262.94 70.47C263.38 71.2033 263.6 72.0766 263.6 73.09C263.6 73.69 263.506 74.2966 263.32 74.91C263.146 75.51 262.86 76.0566 262.46 76.55C262.073 77.0433 261.546 77.4433 260.88 77.75C260.226 78.0433 259.42 78.19 258.46 78.19H256.38V82.85H253.48V68.13H257.94ZM258.44 75.37C258.88 75.37 259.246 75.2966 259.54 75.15C259.833 74.99 260.06 74.7966 260.22 74.57C260.393 74.33 260.513 74.0833 260.58 73.83C260.66 73.5766 260.7 73.3566 260.7 73.17C260.7 73.0233 260.673 72.83 260.62 72.59C260.58 72.3366 260.486 72.0833 260.34 71.83C260.193 71.5766 259.966 71.3633 259.66 71.19C259.366 71.0166 258.966 70.93 258.46 70.93H256.38V75.37H258.44ZM266.195 68.13H276.235V70.93H269.095V74.07H275.415V76.87H269.095V80.05H276.515V82.85H266.195V68.13ZM283.975 68.13C284.895 68.13 285.715 68.25 286.435 68.49C287.155 68.7166 287.755 69.05 288.235 69.49C288.728 69.9166 289.102 70.4366 289.355 71.05C289.608 71.65 289.735 72.33 289.735 73.09C289.735 73.69 289.642 74.29 289.455 74.89C289.282 75.49 288.988 76.0366 288.575 76.53C288.175 77.0233 287.642 77.4233 286.975 77.73C286.308 78.0233 285.482 78.17 284.495 78.17H282.415V82.85H279.515V68.13H283.975ZM284.475 75.37C284.915 75.37 285.282 75.2966 285.575 75.15C285.868 75.0033 286.095 74.8166 286.255 74.59C286.428 74.3633 286.548 74.13 286.615 73.89C286.695 73.6366 286.735 73.4033 286.735 73.19C286.735 73.03 286.708 72.83 286.655 72.59C286.615 72.3366 286.522 72.0833 286.375 71.83C286.228 71.5766 286.002 71.3633 285.695 71.19C285.402 71.0166 285.002 70.93 284.495 70.93H282.415V75.37H284.475ZM287.195 77.17L290.835 82.85H287.455L283.735 77.25L287.195 77.17ZM293.226 68.13H302.426V70.93H296.126V74.27H301.586V77.07H296.126V82.85H293.226V68.13ZM304.318 75.51C304.318 74.4966 304.511 73.5366 304.898 72.63C305.285 71.7233 305.818 70.9233 306.498 70.23C307.191 69.5233 307.991 68.97 308.898 68.57C309.805 68.17 310.778 67.97 311.818 67.97C312.845 67.97 313.811 68.17 314.718 68.57C315.625 68.97 316.425 69.5233 317.118 70.23C317.825 70.9233 318.371 71.7233 318.758 72.63C319.158 73.5366 319.358 74.4966 319.358 75.51C319.358 76.55 319.158 77.5233 318.758 78.43C318.371 79.3366 317.825 80.1366 317.118 80.83C316.425 81.51 315.625 82.0433 314.718 82.43C313.811 82.8166 312.845 83.01 311.818 83.01C310.778 83.01 309.805 82.8166 308.898 82.43C307.991 82.0433 307.191 81.51 306.498 80.83C305.818 80.1366 305.285 79.3366 304.898 78.43C304.511 77.5233 304.318 76.55 304.318 75.51ZM307.318 75.51C307.318 76.1633 307.431 76.7766 307.658 77.35C307.898 77.91 308.225 78.41 308.638 78.85C309.065 79.2766 309.551 79.61 310.098 79.85C310.658 80.09 311.265 80.21 311.918 80.21C312.545 80.21 313.125 80.09 313.658 79.85C314.205 79.61 314.678 79.2766 315.078 78.85C315.478 78.41 315.791 77.91 316.018 77.35C316.245 76.7766 316.358 76.1633 316.358 75.51C316.358 74.8433 316.238 74.2233 315.998 73.65C315.771 73.0766 315.451 72.5766 315.038 72.15C314.638 71.71 314.165 71.37 313.618 71.13C313.071 70.89 312.478 70.77 311.838 70.77C311.198 70.77 310.605 70.89 310.058 71.13C309.511 71.37 309.031 71.71 308.618 72.15C308.205 72.5766 307.885 73.0766 307.658 73.65C307.431 74.2233 307.318 74.8433 307.318 75.51ZM326.709 68.13C327.629 68.13 328.449 68.25 329.169 68.49C329.889 68.7166 330.489 69.05 330.969 69.49C331.463 69.9166 331.836 70.4366 332.089 71.05C332.343 71.65 332.469 72.33 332.469 73.09C332.469 73.69 332.376 74.29 332.189 74.89C332.016 75.49 331.723 76.0366 331.309 76.53C330.909 77.0233 330.376 77.4233 329.709 77.73C329.043 78.0233 328.216 78.17 327.229 78.17H325.149V82.85H322.249V68.13H326.709ZM327.209 75.37C327.649 75.37 328.016 75.2966 328.309 75.15C328.603 75.0033 328.829 74.8166 328.989 74.59C329.163 74.3633 329.283 74.13 329.349 73.89C329.429 73.6366 329.469 73.4033 329.469 73.19C329.469 73.03 329.443 72.83 329.389 72.59C329.349 72.3366 329.256 72.0833 329.109 71.83C328.963 71.5766 328.736 71.3633 328.429 71.19C328.136 71.0166 327.736 70.93 327.229 70.93H325.149V75.37H327.209ZM329.929 77.17L333.569 82.85H330.189L326.469 77.25L329.929 77.17ZM335.96 82.85V67.53H335.98L344.16 79.13L342.92 78.85L351.08 67.53H351.12V82.85H348.22V74.07L348.4 75.57L343.42 82.65H343.38L338.26 75.57L338.76 74.19V82.85H335.96ZM353.265 82.85L359.905 67.55H360.065L366.705 82.85H363.345L359.105 72.09L361.205 70.65L356.125 82.85H353.265ZM357.805 77.53H362.225L363.245 79.97H356.905L357.805 77.53ZM382.031 83.45L370.871 73.37L371.731 73.85L371.791 82.85H368.851V67.55H368.971L379.891 77.59L379.251 77.31L379.191 68.13H382.111V83.45H382.031ZM396.942 81.63C396.782 81.7633 396.482 81.9433 396.042 82.17C395.615 82.3966 395.088 82.5966 394.462 82.77C393.835 82.9433 393.142 83.0233 392.382 83.01C391.222 82.9833 390.182 82.7766 389.262 82.39C388.355 81.99 387.582 81.45 386.942 80.77C386.315 80.09 385.835 79.31 385.502 78.43C385.168 77.55 385.002 76.61 385.002 75.61C385.002 74.49 385.168 73.4633 385.502 72.53C385.848 71.5966 386.335 70.79 386.962 70.11C387.602 69.43 388.362 68.9033 389.242 68.53C390.122 68.1566 391.095 67.97 392.162 67.97C393.148 67.97 394.022 68.1033 394.782 68.37C395.542 68.6366 396.162 68.9233 396.642 69.23L395.502 71.97C395.168 71.7166 394.722 71.4566 394.162 71.19C393.615 70.91 392.982 70.77 392.262 70.77C391.702 70.77 391.162 70.89 390.642 71.13C390.135 71.3566 389.682 71.6833 389.282 72.11C388.895 72.5366 388.588 73.0366 388.362 73.61C388.135 74.17 388.022 74.7833 388.022 75.45C388.022 76.1566 388.122 76.8033 388.322 77.39C388.535 77.9766 388.835 78.4833 389.222 78.91C389.608 79.3233 390.068 79.6433 390.602 79.87C391.148 80.0966 391.762 80.21 392.442 80.21C393.228 80.21 393.902 80.0833 394.462 79.83C395.022 79.5766 395.448 79.31 395.742 79.03L396.942 81.63ZM399.847 68.13H409.887V70.93H402.747V74.07H409.067V76.87H402.747V80.05H410.167V82.85H399.847V68.13ZM424.131 68.13C425.051 68.13 425.871 68.25 426.591 68.49C427.311 68.7166 427.911 69.05 428.391 69.49C428.884 69.9166 429.258 70.4366 429.511 71.05C429.764 71.65 429.891 72.33 429.891 73.09C429.891 73.69 429.798 74.29 429.611 74.89C429.438 75.49 429.144 76.0366 428.731 76.53C428.331 77.0233 427.798 77.4233 427.131 77.73C426.464 78.0233 425.638 78.17 424.651 78.17H422.571V82.85H419.671V68.13H424.131ZM424.631 75.37C425.071 75.37 425.438 75.2966 425.731 75.15C426.024 75.0033 426.251 74.8166 426.411 74.59C426.584 74.3633 426.704 74.13 426.771 73.89C426.851 73.6366 426.891 73.4033 426.891 73.19C426.891 73.03 426.864 72.83 426.811 72.59C426.771 72.3366 426.678 72.0833 426.531 71.83C426.384 71.5766 426.158 71.3633 425.851 71.19C425.558 71.0166 425.158 70.93 424.651 70.93H422.571V75.37H424.631ZM427.351 77.17L430.991 82.85H427.611L423.891 77.25L427.351 77.17ZM433.382 68.13H443.422V70.93H436.282V74.07H442.602V76.87H436.282V80.05H443.702V82.85H433.382V68.13ZM451.162 68.13C452.376 68.13 453.402 68.3366 454.242 68.75C455.082 69.15 455.722 69.7233 456.162 70.47C456.602 71.2033 456.822 72.0766 456.822 73.09C456.822 73.69 456.729 74.2966 456.542 74.91C456.369 75.51 456.082 76.0566 455.682 76.55C455.296 77.0433 454.769 77.4433 454.102 77.75C453.449 78.0433 452.642 78.19 451.682 78.19H449.602V82.85H446.702V68.13H451.162ZM451.662 75.37C452.102 75.37 452.469 75.2966 452.762 75.15C453.056 74.99 453.282 74.7966 453.442 74.57C453.616 74.33 453.736 74.0833 453.802 73.83C453.882 73.5766 453.922 73.3566 453.922 73.17C453.922 73.0233 453.896 72.83 453.842 72.59C453.802 72.3366 453.709 72.0833 453.562 71.83C453.416 71.5766 453.189 71.3633 452.882 71.19C452.589 71.0166 452.189 70.93 451.682 70.93H449.602V75.37H451.662ZM458.517 75.51C458.517 74.4966 458.711 73.5366 459.097 72.63C459.484 71.7233 460.017 70.9233 460.697 70.23C461.391 69.5233 462.191 68.97 463.097 68.57C464.004 68.17 464.977 67.97 466.017 67.97C467.044 67.97 468.011 68.17 468.917 68.57C469.824 68.97 470.624 69.5233 471.317 70.23C472.024 70.9233 472.571 71.7233 472.957 72.63C473.357 73.5366 473.557 74.4966 473.557 75.51C473.557 76.55 473.357 77.5233 472.957 78.43C472.571 79.3366 472.024 80.1366 471.317 80.83C470.624 81.51 469.824 82.0433 468.917 82.43C468.011 82.8166 467.044 83.01 466.017 83.01C464.977 83.01 464.004 82.8166 463.097 82.43C462.191 82.0433 461.391 81.51 460.697 80.83C460.017 80.1366 459.484 79.3366 459.097 78.43C458.711 77.5233 458.517 76.55 458.517 75.51ZM461.517 75.51C461.517 76.1633 461.631 76.7766 461.857 77.35C462.097 77.91 462.424 78.41 462.837 78.85C463.264 79.2766 463.751 79.61 464.297 79.85C464.857 80.09 465.464 80.21 466.117 80.21C466.744 80.21 467.324 80.09 467.857 79.85C468.404 79.61 468.877 79.2766 469.277 78.85C469.677 78.41 469.991 77.91 470.217 77.35C470.444 76.7766 470.557 76.1633 470.557 75.51C470.557 74.8433 470.437 74.2233 470.197 73.65C469.971 73.0766 469.651 72.5766 469.237 72.15C468.837 71.71 468.364 71.37 467.817 71.13C467.271 70.89 466.677 70.77 466.037 70.77C465.397 70.77 464.804 70.89 464.257 71.13C463.711 71.37 463.231 71.71 462.817 72.15C462.404 72.5766 462.084 73.0766 461.857 73.65C461.631 74.2233 461.517 74.8433 461.517 75.51ZM480.908 68.13C481.828 68.13 482.648 68.25 483.368 68.49C484.088 68.7166 484.688 69.05 485.168 69.49C485.662 69.9166 486.035 70.4366 486.288 71.05C486.542 71.65 486.668 72.33 486.668 73.09C486.668 73.69 486.575 74.29 486.388 74.89C486.215 75.49 485.922 76.0366 485.508 76.53C485.108 77.0233 484.575 77.4233 483.908 77.73C483.242 78.0233 482.415 78.17 481.428 78.17H479.348V82.85H476.448V68.13H480.908ZM481.408 75.37C481.848 75.37 482.215 75.2966 482.508 75.15C482.802 75.0033 483.028 74.8166 483.188 74.59C483.362 74.3633 483.482 74.13 483.548 73.89C483.628 73.6366 483.668 73.4033 483.668 73.19C483.668 73.03 483.642 72.83 483.588 72.59C483.548 72.3366 483.455 72.0833 483.308 71.83C483.162 71.5766 482.935 71.3633 482.628 71.19C482.335 71.0166 481.935 70.93 481.428 70.93H479.348V75.37H481.408ZM484.128 77.17L487.768 82.85H484.388L480.668 77.25L484.128 77.17ZM488.866 68.13H498.786V70.93H495.206V82.85H492.306V70.93H488.866V68.13ZM509.445 71.69C508.885 71.3833 508.312 71.13 507.725 70.93C507.152 70.73 506.612 70.63 506.105 70.63C505.479 70.63 504.985 70.7566 504.625 71.01C504.265 71.2633 504.085 71.6433 504.085 72.15C504.085 72.4966 504.219 72.81 504.485 73.09C504.765 73.3566 505.119 73.5966 505.545 73.81C505.985 74.0233 506.439 74.2166 506.905 74.39C507.332 74.55 507.752 74.7433 508.165 74.97C508.592 75.1833 508.972 75.4566 509.305 75.79C509.639 76.11 509.905 76.5166 510.105 77.01C510.305 77.49 510.405 78.0833 510.405 78.79C510.405 79.5366 510.212 80.23 509.825 80.87C509.439 81.51 508.872 82.03 508.125 82.43C507.379 82.8166 506.459 83.01 505.365 83.01C504.805 83.01 504.232 82.9566 503.645 82.85C503.072 82.73 502.505 82.5566 501.945 82.33C501.385 82.09 500.845 81.79 500.325 81.43L501.605 79.17C501.952 79.4233 502.325 79.65 502.725 79.85C503.139 80.0366 503.552 80.1833 503.965 80.29C504.379 80.3966 504.759 80.45 505.105 80.45C505.452 80.45 505.799 80.4033 506.145 80.31C506.505 80.2033 506.799 80.03 507.025 79.79C507.265 79.55 507.385 79.2166 507.385 78.79C507.385 78.4966 507.285 78.23 507.085 77.99C506.899 77.75 506.639 77.53 506.305 77.33C505.985 77.13 505.632 76.9566 505.245 76.81C504.792 76.6366 504.325 76.4366 503.845 76.21C503.365 75.9833 502.912 75.71 502.485 75.39C502.072 75.0566 501.732 74.65 501.465 74.17C501.212 73.6766 501.085 73.0766 501.085 72.37C501.085 71.5166 501.272 70.7766 501.645 70.15C502.032 69.5233 502.572 69.03 503.265 68.67C503.959 68.2966 504.759 68.09 505.665 68.05C506.852 68.05 507.812 68.19 508.545 68.47C509.292 68.75 509.959 69.0833 510.545 69.47L509.445 71.69Z" fill="#333333"/>
<mask id="mask1_35_326" style="mask-type:luminance" maskUnits="userSpaceOnUse" x="534" y="57" width="43" height="42">
<path d="M576.35 57V98.7H534.65V57H576.35Z" fill="white"/>
</mask>
<g mask="url(#mask1_35_326)">
<path d="M555.5 57C544.003 57 534.65 66.3526 534.65 77.85C534.65 89.3474 544.003 98.7 555.5 98.7C566.997 98.7 576.35 89.3474 576.35 77.85C576.35 66.3526 566.997 57 555.5 57ZM561.539 78.9L553.057 87.3813C552.767 87.6719 552.387 87.8208 552.007 87.8208C551.628 87.8208 551.241 87.6719 550.95 87.3813C550.369 86.8005 550.369 85.8547 550.95 85.274L558.382 77.85L550.95 70.4182C550.369 69.8375 550.369 68.8995 550.95 68.3109C551.539 67.7302 552.477 67.7302 553.057 68.3109L561.539 76.7927C562.12 77.3734 562.12 78.3193 561.539 78.9Z" fill="#97CECC"/>
</g>
<defs>
<clipPath id="clip0_35_326">
<rect width="50" height="50" fill="white" transform="translate(263.5)"/>
</clipPath>
</defs>
</svg>
