<svg width="467" height="99" viewBox="0 0 467 99" fill="none" xmlns="http://www.w3.org/2000/svg">
<path d="M229.134 17.7658C229.349 17.7658 229.561 17.6848 229.723 17.5218L238.057 9.18845C238.382 8.86293 238.382 8.33553 238.057 8.01001C237.731 7.68449 237.204 7.68449 236.878 8.01001L228.545 16.3433C228.219 16.6689 228.219 17.1963 228.545 17.5218C228.708 17.6848 228.919 17.7658 229.134 17.7658Z" fill="#12908E"/>
<path d="M229.134 9.43241C229.134 8.9734 229.508 8.59919 229.967 8.59919C230.426 8.59919 230.801 8.9734 230.801 9.43241C230.801 9.89142 230.426 10.2662 229.967 10.2662C229.508 10.2662 229.134 9.89142 229.134 9.43241ZM232.468 9.43241C232.468 8.05264 231.348 6.93274 229.967 6.93274C228.588 6.93274 227.468 8.05264 227.468 9.43241C227.468 10.8127 228.588 11.9326 229.967 11.9326C231.348 11.9326 232.468 10.8127 232.468 9.43241Z" fill="#12908E"/>
<path d="M237.467 16.0993C237.467 16.5584 237.093 16.9326 236.634 16.9326C236.175 16.9326 235.801 16.5584 235.801 16.0993C235.801 15.6403 236.175 15.2661 236.634 15.2661C237.093 15.2661 237.467 15.6403 237.467 16.0993ZM234.134 16.0993C234.134 17.4797 235.254 18.5996 236.634 18.5996C238.014 18.5996 239.134 17.4797 239.134 16.0993C239.134 14.719 238.014 13.5991 236.634 13.5991C235.254 13.5991 234.134 14.719 234.134 16.0993Z" fill="#12908E"/>
<mask id="mask0_35_309" style="mask-type:luminance" maskUnits="userSpaceOnUse" x="208" y="0" width="51" height="50">
<path d="M208.35 0H258.35V50H208.35V0Z" fill="white"/>
</mask>
<g mask="url(#mask0_35_309)">
<path d="M256.684 36.6668H254.183V24.1668H256.684V36.6668ZM247.559 39.1276C247.074 39.6162 246.277 39.6162 245.788 39.1276C245.463 38.8021 244.935 38.8021 244.61 39.1276C244.447 39.2906 244.366 39.5051 244.366 39.7168C244.366 39.9318 244.447 40.143 244.61 40.306C245.092 40.7847 245.092 41.595 244.613 42.0737C244.125 42.5617 243.324 42.5584 242.835 42.0737C242.507 41.7515 241.98 41.7547 241.658 42.0803C241.498 42.2428 241.416 42.4545 241.416 42.6662C241.416 42.8807 241.498 43.0957 241.664 43.2587C242.152 43.7402 242.139 44.5444 241.658 45.0231C241.176 45.5012 240.375 45.498 239.897 45.0198C239.574 44.6943 239.047 44.6943 238.721 45.0198C238.555 45.1823 238.477 45.3973 238.477 45.609C238.477 45.8235 238.555 46.0352 238.721 46.1977C239.196 46.6764 239.2 47.4905 238.725 47.9654C238.23 48.4539 237.435 48.4506 236.924 47.9462C236.898 47.9199 236.312 47.3827 235.32 46.5298C235.85 45.3486 235.544 43.9065 234.476 43.0568C233.981 42.6596 233.389 42.4643 232.797 42.4381C232.907 41.4714 232.54 40.4658 231.716 39.8115C231.221 39.4208 230.639 39.2255 230.049 39.196C230.075 38.9777 230.082 38.7567 230.056 38.5318C229.968 37.7538 229.577 37.0607 228.968 36.582C228.363 36.0972 227.595 35.8757 226.823 35.9703C226.596 35.996 226.377 36.0546 226.169 36.1295C226.006 35.5633 225.678 35.0392 225.186 34.6453C223.926 33.6523 222.084 33.864 221.081 35.124L219.968 36.5333C217.842 35.6607 215.902 35.1562 214.184 35.0326V25.8332H222.517C222.914 25.8332 223.304 25.7424 223.633 25.5695L229.125 22.8062C229.763 22.4773 230.56 22.4319 231.273 22.6431L226.605 27.5588C226.058 28.1671 225.791 28.9943 225.876 29.8308C225.958 30.6641 226.381 31.4223 227.035 31.9109C228.213 32.7868 229.876 32.6659 230.876 31.6505L235.072 27.7212C235.166 27.7896 244.678 34.8209 247.598 37.3993C248.103 37.8452 248.005 38.6817 247.559 39.1276ZM233.647 46.1167L232.273 47.8548C231.843 48.3987 231.048 48.4895 230.512 48.0633C229.971 47.6366 229.88 46.8487 230.306 46.3088C230.306 46.3088 231.684 44.5701 231.687 44.5701C232.09 44.0558 232.911 43.9387 233.438 44.3589C233.981 44.7917 234.073 45.5795 233.647 46.1167ZM227.237 45.4815C226.7 45.0521 226.605 44.2643 227.028 43.7237C227.028 43.7237 228.939 41.3182 228.939 41.3149C229.343 40.8072 230.163 40.7065 230.681 41.1168C231.225 41.5496 231.319 42.3374 230.889 42.8746L228.995 45.2769C228.565 45.8104 227.774 45.8984 227.237 45.4815ZM223.968 42.8971C223.438 42.4775 223.34 41.6699 223.763 41.1425C223.763 41.1425 226.179 38.0925 226.182 38.0892C226.602 37.5585 227.403 37.4644 227.936 37.8873C228.464 38.3075 228.559 39.1145 228.138 39.6419L225.723 42.6919C225.297 43.2292 224.512 43.3238 223.968 42.8971ZM220.703 40.3159C220.163 39.8826 220.069 39.092 220.499 38.5482C220.499 38.5482 222.387 36.1624 222.387 36.1591C222.793 35.6448 223.62 35.5337 224.151 35.9506C224.688 36.3801 224.779 37.1679 224.356 37.7084L222.458 40.1042C222.028 40.6447 221.241 40.7355 220.703 40.3159ZM222.517 12.5C222.517 6.52683 227.377 1.66699 233.35 1.66699C239.323 1.66699 244.184 6.52683 244.184 12.5C244.184 16.5365 241.996 20.1566 238.454 22.0473L237.025 21.3285C236.4 21.0057 235.687 20.8333 234.968 20.8333C234.164 20.8333 233.376 21.0516 232.689 21.4422C231.377 20.7064 229.669 20.6511 228.366 21.3219L227.634 21.6928C224.47 19.7266 222.517 16.247 222.517 12.5ZM242.865 25.8332H252.517V35.0228C250.524 35.124 249.043 35.5502 248.311 35.8139C244.994 32.9821 236.439 26.6571 236.049 26.3705C235.408 25.9147 234.528 25.9766 233.959 26.5138L229.717 30.4556C229.268 30.9081 228.545 30.9573 228.031 30.5732C227.751 30.3648 227.572 30.0327 227.533 29.6645C227.497 29.2969 227.611 28.9358 227.829 28.6912L232.846 23.4085C233.712 22.5031 235.176 22.2492 236.267 22.8127L241.742 25.563C242.081 25.7424 242.471 25.8332 242.865 25.8332ZM212.517 36.6668H210.017V24.1668H212.517V36.6668ZM256.684 22.5003H254.183C253.265 22.5003 252.517 23.2488 252.517 24.1668H242.865C242.738 24.1668 242.611 24.1372 242.501 24.082L240.222 22.9364C243.728 20.6413 245.85 16.7739 245.85 12.5C245.85 5.60552 240.244 0 233.35 0C226.455 0 220.85 5.60552 220.85 12.5C220.85 16.4878 222.764 20.2151 225.928 22.549L222.875 24.0853C222.774 24.1372 222.647 24.1668 222.517 24.1668H214.184C214.184 23.2488 213.435 22.5003 212.517 22.5003H210.017C209.099 22.5003 208.35 23.2488 208.35 24.1668V36.6668C208.35 37.5848 209.099 38.3332 210.017 38.3332H212.517C213.422 38.3332 214.157 37.6072 214.18 36.7056C215.586 36.82 217.181 37.2232 218.939 37.9103C218.256 39.1375 218.532 40.7164 219.668 41.6213C220.202 42.0409 220.837 42.2428 221.469 42.2428C221.596 42.2428 221.719 42.217 221.846 42.2006C221.85 42.2203 221.846 42.2362 221.846 42.2526C221.937 43.024 222.324 43.7144 222.937 44.2024C223.471 44.6259 224.108 44.8305 224.743 44.8305C224.87 44.8305 224.994 44.8048 225.118 44.7884C225.196 45.5467 225.564 46.2759 226.205 46.7902C226.739 47.2071 227.377 47.409 228.008 47.409C228.135 47.409 228.265 47.3827 228.392 47.3668C228.467 48.1251 228.832 48.8577 229.477 49.3719C230.007 49.7916 230.648 49.9967 231.28 49.9967C232.143 49.9967 233.001 49.6192 233.581 48.8899L234.359 47.9035C235.245 48.6656 235.772 49.1504 235.772 49.1504C236.341 49.7133 237.084 49.9934 237.832 49.9934C238.581 49.9934 239.326 49.7133 239.897 49.1471C240.45 48.594 240.755 47.8614 240.755 47.0834C240.755 47.0736 240.755 47.0637 240.755 47.0539C240.765 47.0539 240.775 47.0506 240.788 47.0539C241.566 47.0506 242.296 46.7481 242.835 46.201C243.389 45.6511 243.695 44.9186 243.695 44.1373C243.695 44.1242 243.695 44.1144 243.695 44.1018C244.414 44.1018 245.212 43.8282 245.788 43.2554C246.342 42.7018 246.648 41.9692 246.648 41.1912C246.648 41.1819 246.648 41.1688 246.648 41.159C247.377 41.1819 248.165 40.8821 248.741 40.3028C249.32 39.7201 249.633 38.9192 249.606 38.1023C249.597 37.7867 249.525 37.4902 249.418 37.2106C250.115 37.0054 251.175 36.7707 252.52 36.6958C252.536 37.6012 253.275 38.3332 254.183 38.3332H256.684C257.602 38.3332 258.35 37.5848 258.35 36.6668V24.1668C258.35 23.2488 257.602 22.5003 256.684 22.5003Z" fill="#12908E"/>
</g>
<path d="M6.55594 68.13C8.08927 68.13 9.30927 68.4433 10.2159 69.07C11.1226 69.6833 11.5759 70.6033 11.5759 71.83C11.5759 72.7366 11.3493 73.4966 10.8959 74.11C10.4559 74.71 9.84927 75.1633 9.07594 75.47C8.31594 75.7633 7.4426 75.91 6.45594 75.91L5.99594 74.35C7.20927 74.35 8.2826 74.5166 9.21594 74.85C10.1626 75.1833 10.9093 75.6633 11.4559 76.29C12.0026 76.9033 12.2759 77.6433 12.2759 78.51C12.2759 79.31 12.1293 79.99 11.8359 80.55C11.5559 81.0966 11.1693 81.5433 10.6759 81.89C10.1959 82.2233 9.64927 82.47 9.03594 82.63C8.4226 82.7766 7.78927 82.85 7.13594 82.85H2.23594V68.13H6.55594ZM6.89594 74.15C7.46927 74.15 7.88927 73.9766 8.15594 73.63C8.43594 73.2833 8.57594 72.89 8.57594 72.45C8.57594 71.9433 8.4026 71.5633 8.05594 71.31C7.7226 71.0566 7.26927 70.93 6.69594 70.93H5.13594V74.15H6.89594ZM6.99594 80.15C7.4226 80.15 7.80927 80.0966 8.15594 79.99C8.5026 79.87 8.77594 79.69 8.97594 79.45C9.17594 79.1966 9.27594 78.8833 9.27594 78.51C9.27594 78.0833 9.15594 77.7633 8.91594 77.55C8.67594 77.3233 8.3626 77.17 7.97594 77.09C7.6026 76.9966 7.20927 76.95 6.79594 76.95H5.13594V80.15H6.99594ZM14.2852 75.51C14.2852 74.4966 14.4785 73.5366 14.8652 72.63C15.2518 71.7233 15.7852 70.9233 16.4652 70.23C17.1585 69.5233 17.9585 68.97 18.8652 68.57C19.7718 68.17 20.7452 67.97 21.7852 67.97C22.8118 67.97 23.7785 68.17 24.6852 68.57C25.5918 68.97 26.3918 69.5233 27.0852 70.23C27.7918 70.9233 28.3385 71.7233 28.7252 72.63C29.1252 73.5366 29.3252 74.4966 29.3252 75.51C29.3252 76.55 29.1252 77.5233 28.7252 78.43C28.3385 79.3366 27.7918 80.1366 27.0852 80.83C26.3918 81.51 25.5918 82.0433 24.6852 82.43C23.7785 82.8166 22.8118 83.01 21.7852 83.01C20.7452 83.01 19.7718 82.8166 18.8652 82.43C17.9585 82.0433 17.1585 81.51 16.4652 80.83C15.7852 80.1366 15.2518 79.3366 14.8652 78.43C14.4785 77.5233 14.2852 76.55 14.2852 75.51ZM17.2852 75.51C17.2852 76.1633 17.3985 76.7766 17.6252 77.35C17.8652 77.91 18.1918 78.41 18.6052 78.85C19.0318 79.2766 19.5185 79.61 20.0652 79.85C20.6252 80.09 21.2318 80.21 21.8852 80.21C22.5118 80.21 23.0918 80.09 23.6252 79.85C24.1718 79.61 24.6452 79.2766 25.0452 78.85C25.4452 78.41 25.7585 77.91 25.9852 77.35C26.2118 76.7766 26.3252 76.1633 26.3252 75.51C26.3252 74.8433 26.2052 74.2233 25.9652 73.65C25.7385 73.0766 25.4185 72.5766 25.0052 72.15C24.6052 71.71 24.1318 71.37 23.5852 71.13C23.0385 70.89 22.4452 70.77 21.8052 70.77C21.1652 70.77 20.5718 70.89 20.0252 71.13C19.4785 71.37 18.9985 71.71 18.5852 72.15C18.1718 72.5766 17.8518 73.0766 17.6252 73.65C17.3985 74.2233 17.2852 74.8433 17.2852 75.51ZM29.5408 82.85L36.1808 67.55H36.3408L42.9808 82.85H39.6208L35.3808 72.09L37.4808 70.65L32.4008 82.85H29.5408ZM34.0808 77.53H38.5008L39.5208 79.97H33.1808L34.0808 77.53ZM49.5866 68.13C50.5066 68.13 51.3266 68.25 52.0466 68.49C52.7666 68.7166 53.3666 69.05 53.8466 69.49C54.3399 69.9166 54.7132 70.4366 54.9666 71.05C55.2199 71.65 55.3466 72.33 55.3466 73.09C55.3466 73.69 55.2532 74.29 55.0666 74.89C54.8932 75.49 54.5999 76.0366 54.1866 76.53C53.7866 77.0233 53.2532 77.4233 52.5866 77.73C51.9199 78.0233 51.0932 78.17 50.1066 78.17H48.0266V82.85H45.1266V68.13H49.5866ZM50.0866 75.37C50.5266 75.37 50.8932 75.2966 51.1866 75.15C51.4799 75.0033 51.7066 74.8166 51.8666 74.59C52.0399 74.3633 52.1599 74.13 52.2266 73.89C52.3066 73.6366 52.3466 73.4033 52.3466 73.19C52.3466 73.03 52.3199 72.83 52.2666 72.59C52.2266 72.3366 52.1332 72.0833 51.9866 71.83C51.8399 71.5766 51.6132 71.3633 51.3066 71.19C51.0132 71.0166 50.6132 70.93 50.1066 70.93H48.0266V75.37H50.0866ZM52.8066 77.17L56.4466 82.85H53.0666L49.3466 77.25L52.8066 77.17ZM58.8375 82.85V68.13H63.2375C64.7175 68.13 65.9775 68.35 67.0175 68.79C68.0575 69.23 68.8908 69.8166 69.5175 70.55C70.1575 71.2833 70.6242 72.1033 70.9175 73.01C71.2108 73.9166 71.3575 74.83 71.3575 75.75C71.3575 76.8433 71.1575 77.83 70.7575 78.71C70.3708 79.5766 69.8375 80.3233 69.1575 80.95C68.4775 81.5633 67.6908 82.0366 66.7975 82.37C65.9042 82.69 64.9575 82.85 63.9575 82.85H58.8375ZM61.7375 80.05H63.4575C64.1908 80.05 64.8575 79.9566 65.4575 79.77C66.0575 79.57 66.5708 79.2833 66.9975 78.91C67.4375 78.5366 67.7708 78.07 67.9975 77.51C68.2375 76.9366 68.3575 76.2833 68.3575 75.55C68.3575 74.59 68.1975 73.81 67.8775 73.21C67.5708 72.5966 67.1842 72.1233 66.7175 71.79C66.2642 71.4566 65.7975 71.23 65.3175 71.11C64.8375 70.9766 64.4308 70.91 64.0975 70.91H61.7375V80.05ZM79.1111 82.85L85.7511 67.55H85.9111L92.5511 82.85H89.1911L84.9511 72.09L87.0511 70.65L81.9711 82.85H79.1111ZM83.6511 77.53H88.0711L89.0911 79.97H82.7511L83.6511 77.53ZM107.877 83.45L96.7169 73.37L97.5769 73.85L97.6369 82.85H94.6969V67.55H94.8169L105.737 77.59L105.097 77.31L105.037 68.13H107.957V83.45H107.877ZM111.748 82.85V68.13H116.148C117.628 68.13 118.888 68.35 119.928 68.79C120.968 69.23 121.801 69.8166 122.428 70.55C123.068 71.2833 123.534 72.1033 123.828 73.01C124.121 73.9166 124.268 74.83 124.268 75.75C124.268 76.8433 124.068 77.83 123.668 78.71C123.281 79.5766 122.748 80.3233 122.068 80.95C121.388 81.5633 120.601 82.0366 119.708 82.37C118.814 82.69 117.868 82.85 116.868 82.85H111.748ZM114.648 80.05H116.368C117.101 80.05 117.768 79.9566 118.368 79.77C118.968 79.57 119.481 79.2833 119.908 78.91C120.348 78.5366 120.681 78.07 120.908 77.51C121.148 76.9366 121.268 76.2833 121.268 75.55C121.268 74.59 121.108 73.81 120.788 73.21C120.481 72.5966 120.094 72.1233 119.628 71.79C119.174 71.4566 118.708 71.23 118.228 71.11C117.748 70.9766 117.341 70.91 117.008 70.91H114.648V80.05ZM144.721 81.63C144.561 81.7633 144.261 81.9433 143.821 82.17C143.395 82.3966 142.868 82.5966 142.241 82.77C141.615 82.9433 140.921 83.0233 140.161 83.01C139.001 82.9833 137.961 82.7766 137.041 82.39C136.135 81.99 135.361 81.45 134.721 80.77C134.095 80.09 133.615 79.31 133.281 78.43C132.948 77.55 132.781 76.61 132.781 75.61C132.781 74.49 132.948 73.4633 133.281 72.53C133.628 71.5966 134.115 70.79 134.741 70.11C135.381 69.43 136.141 68.9033 137.021 68.53C137.901 68.1566 138.875 67.97 139.941 67.97C140.928 67.97 141.801 68.1033 142.561 68.37C143.321 68.6366 143.941 68.9233 144.421 69.23L143.281 71.97C142.948 71.7166 142.501 71.4566 141.941 71.19C141.395 70.91 140.761 70.77 140.041 70.77C139.481 70.77 138.941 70.89 138.421 71.13C137.915 71.3566 137.461 71.6833 137.061 72.11C136.675 72.5366 136.368 73.0366 136.141 73.61C135.915 74.17 135.801 74.7833 135.801 75.45C135.801 76.1566 135.901 76.8033 136.101 77.39C136.315 77.9766 136.615 78.4833 137.001 78.91C137.388 79.3233 137.848 79.6433 138.381 79.87C138.928 80.0966 139.541 80.21 140.221 80.21C141.008 80.21 141.681 80.0833 142.241 79.83C142.801 79.5766 143.228 79.31 143.521 79.03L144.721 81.63ZM146.727 75.51C146.727 74.4966 146.92 73.5366 147.307 72.63C147.693 71.7233 148.227 70.9233 148.907 70.23C149.6 69.5233 150.4 68.97 151.307 68.57C152.213 68.17 153.187 67.97 154.227 67.97C155.253 67.97 156.22 68.17 157.127 68.57C158.033 68.97 158.833 69.5233 159.527 70.23C160.233 70.9233 160.78 71.7233 161.167 72.63C161.567 73.5366 161.767 74.4966 161.767 75.51C161.767 76.55 161.567 77.5233 161.167 78.43C160.78 79.3366 160.233 80.1366 159.527 80.83C158.833 81.51 158.033 82.0433 157.127 82.43C156.22 82.8166 155.253 83.01 154.227 83.01C153.187 83.01 152.213 82.8166 151.307 82.43C150.4 82.0433 149.6 81.51 148.907 80.83C148.227 80.1366 147.693 79.3366 147.307 78.43C146.92 77.5233 146.727 76.55 146.727 75.51ZM149.727 75.51C149.727 76.1633 149.84 76.7766 150.067 77.35C150.307 77.91 150.633 78.41 151.047 78.85C151.473 79.2766 151.96 79.61 152.507 79.85C153.067 80.09 153.673 80.21 154.327 80.21C154.953 80.21 155.533 80.09 156.067 79.85C156.613 79.61 157.087 79.2766 157.487 78.85C157.887 78.41 158.2 77.91 158.427 77.35C158.653 76.7766 158.767 76.1633 158.767 75.51C158.767 74.8433 158.647 74.2233 158.407 73.65C158.18 73.0766 157.86 72.5766 157.447 72.15C157.047 71.71 156.573 71.37 156.027 71.13C155.48 70.89 154.887 70.77 154.247 70.77C153.607 70.77 153.013 70.89 152.467 71.13C151.92 71.37 151.44 71.71 151.027 72.15C150.613 72.5766 150.293 73.0766 150.067 73.65C149.84 74.2233 149.727 74.8433 149.727 75.51ZM164.658 82.85V67.53H164.678L172.858 79.13L171.618 78.85L179.778 67.53H179.818V82.85H176.918V74.07L177.098 75.57L172.118 82.65H172.078L166.958 75.57L167.458 74.19V82.85H164.658ZM183.623 82.85V67.53H183.643L191.823 79.13L190.583 78.85L198.743 67.53H198.783V82.85H195.883V74.07L196.063 75.57L191.083 82.65H191.043L185.923 75.57L186.423 74.19V82.85H183.623ZM202.588 68.13H205.488V82.85H202.588V68.13ZM217.147 71.69C216.587 71.3833 216.013 71.13 215.427 70.93C214.853 70.73 214.313 70.63 213.807 70.63C213.18 70.63 212.687 70.7566 212.327 71.01C211.967 71.2633 211.787 71.6433 211.787 72.15C211.787 72.4966 211.92 72.81 212.187 73.09C212.467 73.3566 212.82 73.5966 213.247 73.81C213.687 74.0233 214.14 74.2166 214.607 74.39C215.033 74.55 215.453 74.7433 215.867 74.97C216.293 75.1833 216.673 75.4566 217.007 75.79C217.34 76.11 217.607 76.5166 217.807 77.01C218.007 77.49 218.107 78.0833 218.107 78.79C218.107 79.5366 217.913 80.23 217.527 80.87C217.14 81.51 216.573 82.03 215.827 82.43C215.08 82.8166 214.16 83.01 213.067 83.01C212.507 83.01 211.933 82.9566 211.347 82.85C210.773 82.73 210.207 82.5566 209.647 82.33C209.087 82.09 208.547 81.79 208.027 81.43L209.307 79.17C209.653 79.4233 210.027 79.65 210.427 79.85C210.84 80.0366 211.253 80.1833 211.667 80.29C212.08 80.3966 212.46 80.45 212.807 80.45C213.153 80.45 213.5 80.4033 213.847 80.31C214.207 80.2033 214.5 80.03 214.727 79.79C214.967 79.55 215.087 79.2166 215.087 78.79C215.087 78.4966 214.987 78.23 214.787 77.99C214.6 77.75 214.34 77.53 214.007 77.33C213.687 77.13 213.333 76.9566 212.947 76.81C212.493 76.6366 212.027 76.4366 211.547 76.21C211.067 75.9833 210.613 75.71 210.187 75.39C209.773 75.0566 209.433 74.65 209.167 74.17C208.913 73.6766 208.787 73.0766 208.787 72.37C208.787 71.5166 208.973 70.7766 209.347 70.15C209.733 69.5233 210.273 69.03 210.967 68.67C211.66 68.2966 212.46 68.09 213.367 68.05C214.553 68.05 215.513 68.19 216.247 68.47C216.993 68.75 217.66 69.0833 218.247 69.47L217.147 71.69ZM228.807 71.69C228.247 71.3833 227.674 71.13 227.087 70.93C226.514 70.73 225.974 70.63 225.467 70.63C224.84 70.63 224.347 70.7566 223.987 71.01C223.627 71.2633 223.447 71.6433 223.447 72.15C223.447 72.4966 223.58 72.81 223.847 73.09C224.127 73.3566 224.48 73.5966 224.907 73.81C225.347 74.0233 225.8 74.2166 226.267 74.39C226.694 74.55 227.114 74.7433 227.527 74.97C227.954 75.1833 228.334 75.4566 228.667 75.79C229 76.11 229.267 76.5166 229.467 77.01C229.667 77.49 229.767 78.0833 229.767 78.79C229.767 79.5366 229.574 80.23 229.187 80.87C228.8 81.51 228.234 82.03 227.487 82.43C226.74 82.8166 225.82 83.01 224.727 83.01C224.167 83.01 223.594 82.9566 223.007 82.85C222.434 82.73 221.867 82.5566 221.307 82.33C220.747 82.09 220.207 81.79 219.687 81.43L220.967 79.17C221.314 79.4233 221.687 79.65 222.087 79.85C222.5 80.0366 222.914 80.1833 223.327 80.29C223.74 80.3966 224.12 80.45 224.467 80.45C224.814 80.45 225.16 80.4033 225.507 80.31C225.867 80.2033 226.16 80.03 226.387 79.79C226.627 79.55 226.747 79.2166 226.747 78.79C226.747 78.4966 226.647 78.23 226.447 77.99C226.26 77.75 226 77.53 225.667 77.33C225.347 77.13 224.994 76.9566 224.607 76.81C224.154 76.6366 223.687 76.4366 223.207 76.21C222.727 75.9833 222.274 75.71 221.847 75.39C221.434 75.0566 221.094 74.65 220.827 74.17C220.574 73.6766 220.447 73.0766 220.447 72.37C220.447 71.5166 220.634 70.7766 221.007 70.15C221.394 69.5233 221.934 69.03 222.627 68.67C223.32 68.2966 224.12 68.09 225.027 68.05C226.214 68.05 227.174 68.19 227.907 68.47C228.654 68.75 229.32 69.0833 229.907 69.47L228.807 71.69ZM232.607 68.13H235.507V82.85H232.607V68.13ZM238.406 75.51C238.406 74.4966 238.6 73.5366 238.986 72.63C239.373 71.7233 239.906 70.9233 240.586 70.23C241.28 69.5233 242.08 68.97 242.986 68.57C243.893 68.17 244.866 67.97 245.906 67.97C246.933 67.97 247.9 68.17 248.806 68.57C249.713 68.97 250.513 69.5233 251.206 70.23C251.913 70.9233 252.46 71.7233 252.846 72.63C253.246 73.5366 253.446 74.4966 253.446 75.51C253.446 76.55 253.246 77.5233 252.846 78.43C252.46 79.3366 251.913 80.1366 251.206 80.83C250.513 81.51 249.713 82.0433 248.806 82.43C247.9 82.8166 246.933 83.01 245.906 83.01C244.866 83.01 243.893 82.8166 242.986 82.43C242.08 82.0433 241.28 81.51 240.586 80.83C239.906 80.1366 239.373 79.3366 238.986 78.43C238.6 77.5233 238.406 76.55 238.406 75.51ZM241.406 75.51C241.406 76.1633 241.52 76.7766 241.746 77.35C241.986 77.91 242.313 78.41 242.726 78.85C243.153 79.2766 243.64 79.61 244.186 79.85C244.746 80.09 245.353 80.21 246.006 80.21C246.633 80.21 247.213 80.09 247.746 79.85C248.293 79.61 248.766 79.2766 249.166 78.85C249.566 78.41 249.88 77.91 250.106 77.35C250.333 76.7766 250.446 76.1633 250.446 75.51C250.446 74.8433 250.326 74.2233 250.086 73.65C249.86 73.0766 249.54 72.5766 249.126 72.15C248.726 71.71 248.253 71.37 247.706 71.13C247.16 70.89 246.566 70.77 245.926 70.77C245.286 70.77 244.693 70.89 244.146 71.13C243.6 71.37 243.12 71.71 242.706 72.15C242.293 72.5766 241.973 73.0766 241.746 73.65C241.52 74.2233 241.406 74.8433 241.406 75.51ZM269.518 83.45L258.358 73.37L259.218 73.85L259.278 82.85H256.338V67.55H256.458L267.378 77.59L266.738 77.31L266.678 68.13H269.598V83.45H269.518ZM292.272 68.13V82.85H289.372V76.87H282.792V82.85H279.892V68.13H282.792V74.07H289.372V68.13H292.272ZM294.404 82.85L301.044 67.55H301.204L307.844 82.85H304.484L300.244 72.09L302.344 70.65L297.264 82.85H294.404ZM298.944 77.53H303.364L304.384 79.97H298.044L298.944 77.53ZM323.17 83.45L312.01 73.37L312.87 73.85L312.93 82.85H309.99V67.55H310.11L321.03 77.59L320.39 77.31L320.33 68.13H323.25V83.45H323.17ZM327.041 82.85V68.13H331.441C332.921 68.13 334.181 68.35 335.221 68.79C336.261 69.23 337.094 69.8166 337.721 70.55C338.361 71.2833 338.827 72.1033 339.121 73.01C339.414 73.9166 339.561 74.83 339.561 75.75C339.561 76.8433 339.361 77.83 338.961 78.71C338.574 79.5766 338.041 80.3233 337.361 80.95C336.681 81.5633 335.894 82.0366 335.001 82.37C334.107 82.69 333.161 82.85 332.161 82.85H327.041ZM329.941 80.05H331.661C332.394 80.05 333.061 79.9566 333.661 79.77C334.261 79.57 334.774 79.2833 335.201 78.91C335.641 78.5366 335.974 78.07 336.201 77.51C336.441 76.9366 336.561 76.2833 336.561 75.55C336.561 74.59 336.401 73.81 336.081 73.21C335.774 72.5966 335.387 72.1233 334.921 71.79C334.467 71.4566 334.001 71.23 333.521 71.11C333.041 70.9766 332.634 70.91 332.301 70.91H329.941V80.05ZM346.79 68.13C348.324 68.13 349.544 68.4433 350.45 69.07C351.357 69.6833 351.81 70.6033 351.81 71.83C351.81 72.7366 351.584 73.4966 351.13 74.11C350.69 74.71 350.084 75.1633 349.31 75.47C348.55 75.7633 347.677 75.91 346.69 75.91L346.23 74.35C347.444 74.35 348.517 74.5166 349.45 74.85C350.397 75.1833 351.144 75.6633 351.69 76.29C352.237 76.9033 352.51 77.6433 352.51 78.51C352.51 79.31 352.364 79.99 352.07 80.55C351.79 81.0966 351.404 81.5433 350.91 81.89C350.43 82.2233 349.884 82.47 349.27 82.63C348.657 82.7766 348.024 82.85 347.37 82.85H342.47V68.13H346.79ZM347.13 74.15C347.704 74.15 348.124 73.9766 348.39 73.63C348.67 73.2833 348.81 72.89 348.81 72.45C348.81 71.9433 348.637 71.5633 348.29 71.31C347.957 71.0566 347.504 70.93 346.93 70.93H345.37V74.15H347.13ZM347.23 80.15C347.657 80.15 348.044 80.0966 348.39 79.99C348.737 79.87 349.01 79.69 349.21 79.45C349.41 79.1966 349.51 78.8833 349.51 78.51C349.51 78.0833 349.39 77.7633 349.15 77.55C348.91 77.3233 348.597 77.17 348.21 77.09C347.837 76.9966 347.444 76.95 347.03 76.95H345.37V80.15H347.23ZM354.52 75.51C354.52 74.4966 354.713 73.5366 355.1 72.63C355.486 71.7233 356.02 70.9233 356.7 70.23C357.393 69.5233 358.193 68.97 359.1 68.57C360.006 68.17 360.98 67.97 362.02 67.97C363.046 67.97 364.013 68.17 364.92 68.57C365.826 68.97 366.626 69.5233 367.32 70.23C368.026 70.9233 368.573 71.7233 368.96 72.63C369.36 73.5366 369.56 74.4966 369.56 75.51C369.56 76.55 369.36 77.5233 368.96 78.43C368.573 79.3366 368.026 80.1366 367.32 80.83C366.626 81.51 365.826 82.0433 364.92 82.43C364.013 82.8166 363.046 83.01 362.02 83.01C360.98 83.01 360.006 82.8166 359.1 82.43C358.193 82.0433 357.393 81.51 356.7 80.83C356.02 80.1366 355.486 79.3366 355.1 78.43C354.713 77.5233 354.52 76.55 354.52 75.51ZM357.52 75.51C357.52 76.1633 357.633 76.7766 357.86 77.35C358.1 77.91 358.426 78.41 358.84 78.85C359.266 79.2766 359.753 79.61 360.3 79.85C360.86 80.09 361.466 80.21 362.12 80.21C362.746 80.21 363.326 80.09 363.86 79.85C364.406 79.61 364.88 79.2766 365.28 78.85C365.68 78.41 365.993 77.91 366.22 77.35C366.446 76.7766 366.56 76.1633 366.56 75.51C366.56 74.8433 366.44 74.2233 366.2 73.65C365.973 73.0766 365.653 72.5766 365.24 72.15C364.84 71.71 364.366 71.37 363.82 71.13C363.273 70.89 362.68 70.77 362.04 70.77C361.4 70.77 360.806 70.89 360.26 71.13C359.713 71.37 359.233 71.71 358.82 72.15C358.406 72.5766 358.086 73.0766 357.86 73.65C357.633 74.2233 357.52 74.8433 357.52 75.51ZM371.551 75.51C371.551 74.4966 371.744 73.5366 372.131 72.63C372.517 71.7233 373.051 70.9233 373.731 70.23C374.424 69.5233 375.224 68.97 376.131 68.57C377.037 68.17 378.011 67.97 379.051 67.97C380.077 67.97 381.044 68.17 381.951 68.57C382.857 68.97 383.657 69.5233 384.351 70.23C385.057 70.9233 385.604 71.7233 385.991 72.63C386.391 73.5366 386.591 74.4966 386.591 75.51C386.591 76.55 386.391 77.5233 385.991 78.43C385.604 79.3366 385.057 80.1366 384.351 80.83C383.657 81.51 382.857 82.0433 381.951 82.43C381.044 82.8166 380.077 83.01 379.051 83.01C378.011 83.01 377.037 82.8166 376.131 82.43C375.224 82.0433 374.424 81.51 373.731 80.83C373.051 80.1366 372.517 79.3366 372.131 78.43C371.744 77.5233 371.551 76.55 371.551 75.51ZM374.551 75.51C374.551 76.1633 374.664 76.7766 374.891 77.35C375.131 77.91 375.457 78.41 375.871 78.85C376.297 79.2766 376.784 79.61 377.331 79.85C377.891 80.09 378.497 80.21 379.151 80.21C379.777 80.21 380.357 80.09 380.891 79.85C381.437 79.61 381.911 79.2766 382.311 78.85C382.711 78.41 383.024 77.91 383.251 77.35C383.477 76.7766 383.591 76.1633 383.591 75.51C383.591 74.8433 383.471 74.2233 383.231 73.65C383.004 73.0766 382.684 72.5766 382.271 72.15C381.871 71.71 381.397 71.37 380.851 71.13C380.304 70.89 379.711 70.77 379.071 70.77C378.431 70.77 377.837 70.89 377.291 71.13C376.744 71.37 376.264 71.71 375.851 72.15C375.437 72.5766 375.117 73.0766 374.891 73.65C374.664 74.2233 374.551 74.8433 374.551 75.51ZM392.422 73.37L392.342 74.11L392.782 73.55L397.582 68.13H401.342L395.262 74.73L401.362 82.85H397.682L393.142 76.57L392.422 77.29V82.85H389.482V68.13H392.422V73.37Z" fill="#333333"/>
<mask id="mask1_35_309" style="mask-type:luminance" maskUnits="userSpaceOnUse" x="425" y="57" width="42" height="42">
<path d="M466.7 57V98.7H425V57H466.7Z" fill="white"/>
</mask>
<g mask="url(#mask1_35_309)">
<path d="M445.85 57C434.353 57 425 66.3526 425 77.85C425 89.3474 434.353 98.7 445.85 98.7C457.347 98.7 466.7 89.3474 466.7 77.85C466.7 66.3526 457.347 57 445.85 57ZM451.889 78.9L443.407 87.3813C443.117 87.6719 442.737 87.8208 442.357 87.8208C441.978 87.8208 441.591 87.6719 441.3 87.3813C440.719 86.8005 440.719 85.8547 441.3 85.274L448.732 77.85L441.3 70.4182C440.719 69.8375 440.719 68.8995 441.3 68.3109C441.888 67.7302 442.827 67.7302 443.407 68.3109L451.889 76.7927C452.47 77.3734 452.47 78.3193 451.889 78.9Z" fill="#97CECC"/>
</g>
</svg>
