<svg width="268" height="99" viewBox="0 0 268 99" fill="none" xmlns="http://www.w3.org/2000/svg">
<mask id="mask0_35_347" style="mask-type:luminance" maskUnits="userSpaceOnUse" x="111" y="0" width="47" height="22">
<path d="M111.383 0.6745H157.65V21.7334H111.383V0.6745Z" fill="white"/>
</mask>
<g mask="url(#mask0_35_347)">
<path d="M147.735 4.19117V13.3089L143.156 9.9193V4.19117C143.156 3.77763 142.822 3.44274 142.407 3.44274H140.979V3.23232C140.979 2.65055 141.455 2.17763 142.041 2.17763H148.842C149.429 2.17763 149.905 2.65055 149.905 3.23232V3.44274H148.483C148.07 3.44274 147.735 3.77763 147.735 4.19117ZM157.289 20.3813L149.231 14.4167V4.93961H150.653C151.066 4.93961 151.401 4.60472 151.401 4.19117V3.23232C151.401 1.82503 150.253 0.680237 148.842 0.680237H142.041C140.63 0.680237 139.482 1.82503 139.482 3.23232V4.19117C139.482 4.60472 139.817 4.93961 140.23 4.93961H141.659V8.81149L134.981 3.86722C134.717 3.6719 134.355 3.6719 134.092 3.86722L111.755 20.3808C111.422 20.6266 111.352 21.0948 111.597 21.4282C111.744 21.6271 111.971 21.7318 112.2 21.7318C112.354 21.7318 112.51 21.6844 112.643 21.5854L134.536 5.40055L156.399 21.5844C156.732 21.8318 157.2 21.7604 157.445 21.4282C157.692 21.0959 157.621 20.6266 157.289 20.3813Z" fill="#12908E"/>
</g>
<mask id="mask1_35_347" style="mask-type:luminance" maskUnits="userSpaceOnUse" x="114" y="7" width="41" height="41">
<path d="M114.717 7.73334H154.317V47.6745H114.717V7.73334Z" fill="white"/>
</mask>
<g mask="url(#mask1_35_347)">
<path d="M152.711 46.1713H116.29V43.6479H152.711V46.1713ZM118.442 21.3568L134.539 9.41665L150.558 21.3557V42.151H118.442V21.3568ZM153.459 42.151H152.056V20.9802C152.056 20.7432 151.944 20.5213 151.754 20.3797L134.987 7.88331C134.72 7.68644 134.358 7.68644 134.094 7.88331L117.247 20.3786C117.058 20.5193 116.945 20.7432 116.945 20.9802V42.151H115.541C115.128 42.151 114.793 42.4859 114.793 42.8995V46.9203C114.793 47.3338 115.128 47.6687 115.541 47.6687H153.459C153.873 47.6687 154.208 47.3338 154.208 46.9203V42.8995C154.208 42.4859 153.873 42.151 153.459 42.151Z" fill="#12908E"/>
</g>
<path d="M142.473 25.8849L141.896 25.3088C141.708 25.1193 141.458 25.0146 141.191 25.0146C141.103 25.0146 141.016 25.0271 140.931 25.0489L138.146 22.2609C138.235 21.9276 138.148 21.5578 137.888 21.2974L137.311 20.7203L139.202 18.8271L139.779 19.4031C140.029 19.6552 140.409 19.7515 140.743 19.6625L143.529 22.4515C143.441 22.7838 143.527 23.1536 143.787 23.4151L144.364 23.9922L142.473 25.8849ZM142.296 35.864C142.526 36.0942 142.653 36.4005 142.654 36.7265C142.654 37.0521 142.526 37.3583 142.296 37.5885C142.065 37.8203 141.759 37.9469 141.433 37.9469C141.43 37.9469 141.426 37.9469 141.422 37.9469C141.092 37.9443 140.784 37.812 140.556 37.575L133.253 29.9812C133.25 29.9786 133.249 29.9739 133.245 29.9713C133.244 29.9682 133.24 29.9672 133.237 29.9646L131.844 28.5166C131.62 28.2932 129.614 26.3213 128.265 25.9422C128.009 25.8719 127.735 25.8364 127.449 25.8364C127.395 25.8364 127.342 25.8375 127.289 25.8401C126.939 25.8552 126.596 25.7885 126.289 25.6479L128.992 22.9427C129.633 22.2989 129.633 21.2521 128.992 20.6094L127.706 19.3229C128.403 19.2073 129.144 19.4229 129.672 19.9521L130.236 20.5166C130.636 20.9161 130.869 21.4521 130.89 22.025C130.957 23.7932 132.116 25.8599 133.203 27.0703C133.203 27.0703 142.207 35.7776 142.296 35.864ZM130.643 33.801L126.854 37.5927C126.523 37.9229 125.943 37.9208 125.614 37.5927C125.272 37.25 125.272 36.6937 125.614 36.3515L129.397 32.5666C129.568 32.3963 129.768 32.2463 130.004 32.1151L131.084 33.1969C130.953 33.4375 130.807 33.6375 130.643 33.801ZM145.104 22.6146C145.126 22.5323 145.138 22.4469 145.138 22.3588C145.139 22.0927 145.035 21.8406 144.845 21.65L141.543 18.3458C141.291 18.0937 140.914 17.9984 140.579 18.0864L139.906 17.413C139.517 17.026 138.885 17.0271 138.497 17.4146L135.899 20.0151C135.511 20.4047 135.512 21.0375 135.899 21.4255L136.572 22.0979C136.483 22.4312 136.569 22.8015 136.83 23.0614L137.961 24.1943L135.218 26.9385C134.916 26.6463 134.606 26.3463 134.28 26.0318C133.399 25.0479 132.435 23.289 132.385 21.9687C132.351 21.0172 131.962 20.125 131.293 19.4573L130.73 18.8932C129.458 17.6203 127.455 17.4312 125.968 18.4437C125.783 18.5687 125.665 18.7703 125.644 18.9927C125.622 19.2146 125.702 19.4338 125.859 19.5922L127.933 21.6677C127.992 21.726 127.992 21.826 127.933 21.8844L125.134 24.6854L124.972 24.5245C124.389 23.9396 124.335 22.9578 124.541 22.2443C124.656 21.8463 124.428 21.4307 124.03 21.3161C123.632 21.2031 123.218 21.4307 123.103 21.8276C122.703 23.2151 123.021 24.689 123.915 25.5828L124.652 26.3198C124.668 26.337 124.686 26.3536 124.704 26.3687C125.426 27.0349 126.366 27.3719 127.355 27.3354C127.547 27.3271 127.716 27.3437 127.863 27.3849C128.596 27.5911 130.047 28.8396 130.777 29.5666L131.668 30.4932C131.589 30.5755 131.329 30.8318 131.08 31.0739L130.69 30.6838C130.476 30.4708 130.157 30.4062 129.88 30.5198C129.264 30.7687 128.745 31.101 128.34 31.5083L124.556 35.2937C123.631 36.2192 123.631 37.7255 124.556 38.651C125.004 39.0989 125.601 39.3453 126.235 39.3453C126.868 39.3453 127.465 39.0989 127.913 38.651L131.701 34.8599C132.099 34.4609 132.42 33.9568 132.678 33.3193C132.791 33.0396 132.726 32.7213 132.513 32.5083L132.146 32.1411C132.374 31.9182 132.582 31.7026 132.705 31.5719L139.48 38.6151C139.99 39.1432 140.676 39.4385 141.41 39.4443C141.418 39.4443 141.426 39.4443 141.434 39.4443C142.159 39.4443 142.84 39.162 143.354 38.6474C143.868 38.1349 144.149 37.4515 144.149 36.7255C144.149 36 143.867 35.3177 143.372 34.8239C143.355 34.8062 143.348 34.7989 136.295 27.9797L139.02 25.2526L140.131 26.3651C140.382 26.6166 140.761 26.714 141.096 26.625L141.768 27.2958C141.954 27.4849 142.206 27.589 142.473 27.589C142.74 27.589 142.991 27.4849 143.178 27.2969L145.776 24.6984C146.164 24.3099 146.164 23.6765 145.776 23.2864L145.104 22.6146Z" fill="#12908E"/>
<path d="M6.68484 68.13C8.21818 68.13 9.43818 68.4433 10.3448 69.07C11.2515 69.6833 11.7048 70.6033 11.7048 71.83C11.7048 72.7366 11.4782 73.4966 11.0248 74.11C10.5848 74.71 9.97818 75.1633 9.20484 75.47C8.44484 75.7633 7.57151 75.91 6.58484 75.91L6.12484 74.35C7.33818 74.35 8.41151 74.5166 9.34484 74.85C10.2915 75.1833 11.0382 75.6633 11.5848 76.29C12.1315 76.9033 12.4048 77.6433 12.4048 78.51C12.4048 79.31 12.2582 79.99 11.9648 80.55C11.6848 81.0966 11.2982 81.5433 10.8048 81.89C10.3248 82.2233 9.77818 82.47 9.16484 82.63C8.55151 82.7766 7.91818 82.85 7.26484 82.85H2.36484V68.13H6.68484ZM7.02484 74.15C7.59818 74.15 8.01818 73.9766 8.28484 73.63C8.56484 73.2833 8.70484 72.89 8.70484 72.45C8.70484 71.9433 8.53151 71.5633 8.18484 71.31C7.85151 71.0566 7.39818 70.93 6.82484 70.93H5.26484V74.15H7.02484ZM7.12484 80.15C7.55151 80.15 7.93818 80.0966 8.28484 79.99C8.63151 79.87 8.90484 79.69 9.10484 79.45C9.30484 79.1966 9.40484 78.8833 9.40484 78.51C9.40484 78.0833 9.28484 77.7633 9.04484 77.55C8.80484 77.3233 8.49151 77.17 8.10484 77.09C7.73151 76.9966 7.33818 76.95 6.92484 76.95H5.26484V80.15H7.12484ZM17.9141 77.41C17.9141 77.8766 18.0541 78.3233 18.3341 78.75C18.6141 79.1766 18.9807 79.5233 19.4341 79.79C19.9007 80.0566 20.4074 80.19 20.9541 80.19C21.5541 80.19 22.0874 80.0566 22.5541 79.79C23.0207 79.5233 23.3874 79.1766 23.6541 78.75C23.9341 78.3233 24.0741 77.8766 24.0741 77.41V68.13H26.9341V77.47C26.9341 78.55 26.6674 79.51 26.1341 80.35C25.6007 81.1766 24.8807 81.83 23.9741 82.31C23.0674 82.7766 22.0607 83.01 20.9541 83.01C19.8607 83.01 18.8607 82.7766 17.9541 82.31C17.0607 81.83 16.3474 81.1766 15.8141 80.35C15.2807 79.51 15.0141 78.55 15.0141 77.47V68.13H17.9141V77.41ZM30.4313 68.13H33.3313V82.85H30.4313V68.13ZM37.1305 68.13H40.0305V80.05H46.9505V82.85H37.1305V68.13ZM49.943 82.85V68.13H54.343C55.823 68.13 57.083 68.35 58.123 68.79C59.163 69.23 59.9963 69.8166 60.623 70.55C61.263 71.2833 61.7296 72.1033 62.023 73.01C62.3163 73.9166 62.463 74.83 62.463 75.75C62.463 76.8433 62.263 77.83 61.863 78.71C61.4763 79.5766 60.943 80.3233 60.263 80.95C59.583 81.5633 58.7963 82.0366 57.903 82.37C57.0096 82.69 56.063 82.85 55.063 82.85H49.943ZM52.843 80.05H54.563C55.2963 80.05 55.963 79.9566 56.563 79.77C57.163 79.57 57.6763 79.2833 58.103 78.91C58.543 78.5366 58.8763 78.07 59.103 77.51C59.343 76.9366 59.463 76.2833 59.463 75.55C59.463 74.59 59.303 73.81 58.983 73.21C58.6763 72.5966 58.2896 72.1233 57.823 71.79C57.3696 71.4566 56.903 71.23 56.423 71.11C55.943 70.9766 55.5363 70.91 55.203 70.91H52.843V80.05ZM65.3727 68.13H68.2727V82.85H65.3727V68.13ZM85.2519 83.45L74.0919 73.37L74.9519 73.85L75.0119 82.85H72.0719V67.55H72.1919L83.1119 77.59L82.4719 77.31L82.4119 68.13H85.3319V83.45H85.2519ZM101.063 81.37C100.889 81.5566 100.616 81.75 100.243 81.95C99.8693 82.1366 99.436 82.31 98.9427 82.47C98.4627 82.63 97.9693 82.7566 97.4627 82.85C96.956 82.9566 96.476 83.01 96.0227 83.01C94.8227 83.01 93.7427 82.8366 92.7827 82.49C91.8227 82.13 91.0027 81.6366 90.3227 81.01C89.6427 80.37 89.1227 79.6166 88.7627 78.75C88.4027 77.8833 88.2227 76.9366 88.2227 75.91C88.2227 74.5633 88.4227 73.3966 88.8227 72.41C89.236 71.41 89.7893 70.5833 90.4827 69.93C91.1893 69.2633 91.996 68.77 92.9027 68.45C93.8227 68.13 94.7827 67.97 95.7827 67.97C96.7293 67.97 97.596 68.0766 98.3827 68.29C99.1693 68.49 99.836 68.7433 100.383 69.05L99.4427 71.75C99.2027 71.6166 98.8827 71.4833 98.4827 71.35C98.0827 71.2166 97.676 71.11 97.2627 71.03C96.8493 70.9366 96.4827 70.89 96.1627 70.89C95.3627 70.89 94.656 70.99 94.0427 71.19C93.4293 71.39 92.9093 71.69 92.4827 72.09C92.0693 72.49 91.756 72.99 91.5427 73.59C91.3293 74.1766 91.2227 74.8633 91.2227 75.65C91.2227 76.3433 91.3427 76.97 91.5827 77.53C91.8227 78.0766 92.156 78.5433 92.5827 78.93C93.0227 79.3166 93.536 79.61 94.1227 79.81C94.7227 80.01 95.3827 80.11 96.1027 80.11C96.516 80.11 96.896 80.0833 97.2427 80.03C97.5893 79.9633 97.8827 79.8633 98.1227 79.73V77.95H95.5827V75.15H101.063V81.37ZM115.321 68.13C116.241 68.13 117.061 68.25 117.781 68.49C118.501 68.7166 119.101 69.05 119.581 69.49C120.074 69.9166 120.448 70.4366 120.701 71.05C120.954 71.65 121.081 72.33 121.081 73.09C121.081 73.69 120.988 74.29 120.801 74.89C120.628 75.49 120.334 76.0366 119.921 76.53C119.521 77.0233 118.988 77.4233 118.321 77.73C117.654 78.0233 116.828 78.17 115.841 78.17H113.761V82.85H110.861V68.13H115.321ZM115.821 75.37C116.261 75.37 116.628 75.2966 116.921 75.15C117.214 75.0033 117.441 74.8166 117.601 74.59C117.774 74.3633 117.894 74.13 117.961 73.89C118.041 73.6366 118.081 73.4033 118.081 73.19C118.081 73.03 118.054 72.83 118.001 72.59C117.961 72.3366 117.868 72.0833 117.721 71.83C117.574 71.5766 117.348 71.3633 117.041 71.19C116.748 71.0166 116.348 70.93 115.841 70.93H113.761V75.37H115.821ZM118.541 77.17L122.181 82.85H118.801L115.081 77.25L118.541 77.17ZM124.572 68.13H134.612V70.93H127.472V74.07H133.792V76.87H127.472V80.05H134.892V82.85H124.572V68.13ZM142.352 68.13C143.566 68.13 144.592 68.3366 145.432 68.75C146.272 69.15 146.912 69.7233 147.352 70.47C147.792 71.2033 148.012 72.0766 148.012 73.09C148.012 73.69 147.919 74.2966 147.732 74.91C147.559 75.51 147.272 76.0566 146.872 76.55C146.486 77.0433 145.959 77.4433 145.292 77.75C144.639 78.0433 143.832 78.19 142.872 78.19H140.792V82.85H137.892V68.13H142.352ZM142.852 75.37C143.292 75.37 143.659 75.2966 143.952 75.15C144.246 74.99 144.472 74.7966 144.632 74.57C144.806 74.33 144.926 74.0833 144.992 73.83C145.072 73.5766 145.112 73.3566 145.112 73.17C145.112 73.0233 145.086 72.83 145.032 72.59C144.992 72.3366 144.899 72.0833 144.752 71.83C144.606 71.5766 144.379 71.3633 144.072 71.19C143.779 71.0166 143.379 70.93 142.872 70.93H140.792V75.37H142.852ZM149.707 75.51C149.707 74.4966 149.9 73.5366 150.287 72.63C150.674 71.7233 151.207 70.9233 151.887 70.23C152.58 69.5233 153.38 68.97 154.287 68.57C155.194 68.17 156.167 67.97 157.207 67.97C158.234 67.97 159.2 68.17 160.107 68.57C161.014 68.97 161.814 69.5233 162.507 70.23C163.214 70.9233 163.76 71.7233 164.147 72.63C164.547 73.5366 164.747 74.4966 164.747 75.51C164.747 76.55 164.547 77.5233 164.147 78.43C163.76 79.3366 163.214 80.1366 162.507 80.83C161.814 81.51 161.014 82.0433 160.107 82.43C159.2 82.8166 158.234 83.01 157.207 83.01C156.167 83.01 155.194 82.8166 154.287 82.43C153.38 82.0433 152.58 81.51 151.887 80.83C151.207 80.1366 150.674 79.3366 150.287 78.43C149.9 77.5233 149.707 76.55 149.707 75.51ZM152.707 75.51C152.707 76.1633 152.82 76.7766 153.047 77.35C153.287 77.91 153.614 78.41 154.027 78.85C154.454 79.2766 154.94 79.61 155.487 79.85C156.047 80.09 156.654 80.21 157.307 80.21C157.934 80.21 158.514 80.09 159.047 79.85C159.594 79.61 160.067 79.2766 160.467 78.85C160.867 78.41 161.18 77.91 161.407 77.35C161.634 76.7766 161.747 76.1633 161.747 75.51C161.747 74.8433 161.627 74.2233 161.387 73.65C161.16 73.0766 160.84 72.5766 160.427 72.15C160.027 71.71 159.554 71.37 159.007 71.13C158.46 70.89 157.867 70.77 157.227 70.77C156.587 70.77 155.994 70.89 155.447 71.13C154.9 71.37 154.42 71.71 154.007 72.15C153.594 72.5766 153.274 73.0766 153.047 73.65C152.82 74.2233 152.707 74.8433 152.707 75.51ZM172.098 68.13C173.018 68.13 173.838 68.25 174.558 68.49C175.278 68.7166 175.878 69.05 176.358 69.49C176.852 69.9166 177.225 70.4366 177.478 71.05C177.732 71.65 177.858 72.33 177.858 73.09C177.858 73.69 177.765 74.29 177.578 74.89C177.405 75.49 177.112 76.0366 176.698 76.53C176.298 77.0233 175.765 77.4233 175.098 77.73C174.432 78.0233 173.605 78.17 172.618 78.17H170.538V82.85H167.638V68.13H172.098ZM172.598 75.37C173.038 75.37 173.405 75.2966 173.698 75.15C173.992 75.0033 174.218 74.8166 174.378 74.59C174.552 74.3633 174.672 74.13 174.738 73.89C174.818 73.6366 174.858 73.4033 174.858 73.19C174.858 73.03 174.832 72.83 174.778 72.59C174.738 72.3366 174.645 72.0833 174.498 71.83C174.352 71.5766 174.125 71.3633 173.818 71.19C173.525 71.0166 173.125 70.93 172.618 70.93H170.538V75.37H172.598ZM175.318 77.17L178.958 82.85H175.578L171.858 77.25L175.318 77.17ZM180.056 68.13H189.976V70.93H186.396V82.85H183.496V70.93H180.056V68.13ZM200.635 71.69C200.075 71.3833 199.502 71.13 198.915 70.93C198.342 70.73 197.802 70.63 197.295 70.63C196.668 70.63 196.175 70.7566 195.815 71.01C195.455 71.2633 195.275 71.6433 195.275 72.15C195.275 72.4966 195.408 72.81 195.675 73.09C195.955 73.3566 196.308 73.5966 196.735 73.81C197.175 74.0233 197.628 74.2166 198.095 74.39C198.522 74.55 198.942 74.7433 199.355 74.97C199.782 75.1833 200.162 75.4566 200.495 75.79C200.828 76.11 201.095 76.5166 201.295 77.01C201.495 77.49 201.595 78.0833 201.595 78.79C201.595 79.5366 201.402 80.23 201.015 80.87C200.628 81.51 200.062 82.03 199.315 82.43C198.568 82.8166 197.648 83.01 196.555 83.01C195.995 83.01 195.422 82.9566 194.835 82.85C194.262 82.73 193.695 82.5566 193.135 82.33C192.575 82.09 192.035 81.79 191.515 81.43L192.795 79.17C193.142 79.4233 193.515 79.65 193.915 79.85C194.328 80.0366 194.742 80.1833 195.155 80.29C195.568 80.3966 195.948 80.45 196.295 80.45C196.642 80.45 196.988 80.4033 197.335 80.31C197.695 80.2033 197.988 80.03 198.215 79.79C198.455 79.55 198.575 79.2166 198.575 78.79C198.575 78.4966 198.475 78.23 198.275 77.99C198.088 77.75 197.828 77.53 197.495 77.33C197.175 77.13 196.822 76.9566 196.435 76.81C195.982 76.6366 195.515 76.4366 195.035 76.21C194.555 75.9833 194.102 75.71 193.675 75.39C193.262 75.0566 192.922 74.65 192.655 74.17C192.402 73.6766 192.275 73.0766 192.275 72.37C192.275 71.5166 192.462 70.7766 192.835 70.15C193.222 69.5233 193.762 69.03 194.455 68.67C195.148 68.2966 195.948 68.09 196.855 68.05C198.042 68.05 199.002 68.19 199.735 68.47C200.482 68.75 201.148 69.0833 201.735 69.47L200.635 71.69Z" fill="#333333"/>
<mask id="mask2_35_347" style="mask-type:luminance" maskUnits="userSpaceOnUse" x="226" y="57" width="42" height="42">
<path d="M267.7 57V98.7H226V57H267.7Z" fill="white"/>
</mask>
<g mask="url(#mask2_35_347)">
<path d="M246.85 57C235.353 57 226 66.3526 226 77.85C226 89.3474 235.353 98.7 246.85 98.7C258.347 98.7 267.7 89.3474 267.7 77.85C267.7 66.3526 258.347 57 246.85 57ZM252.889 78.9L244.407 87.3813C244.117 87.6719 243.737 87.8208 243.357 87.8208C242.978 87.8208 242.591 87.6719 242.3 87.3813C241.719 86.8005 241.719 85.8547 242.3 85.274L249.732 77.85L242.3 70.4182C241.719 69.8375 241.719 68.8995 242.3 68.3109C242.888 67.7302 243.827 67.7302 244.407 68.3109L252.889 76.7927C253.47 77.3734 253.47 78.3193 252.889 78.9Z" fill="#97CECC"/>
</g>
</svg>
