<svg width="329" height="91" viewBox="0 0 329 91" fill="none" xmlns="http://www.w3.org/2000/svg">
<mask id="mask0_35_348" style="mask-type:luminance" maskUnits="userSpaceOnUse" x="139" y="0" width="51" height="43">
<path d="M139.35 0H189.35V42.1336H139.35V0Z" fill="white"/>
</mask>
<g mask="url(#mask0_35_348)">
<path d="M145.361 18.4256L140.823 15.6912L145.361 11.5369V18.4256ZM182.291 1.08995V10.3145C182.291 10.319 182.291 10.3235 182.291 10.328V19.0811L168.951 27.1193C168.949 27.1204 168.946 27.1221 168.944 27.1232L164.37 29.8795L159.793 27.1221C159.793 27.1221 159.792 27.1215 159.792 27.121L146.449 19.0811V1.08995H182.291ZM187.917 15.6912L183.378 18.4256V11.5369L187.917 15.6912ZM170.223 27.6227L188.277 16.7441V40.4931L170.223 27.6227ZM159.532 28.2345L164.089 30.9801C164.261 31.0844 164.478 31.0844 164.65 30.9801L169.207 28.2345L187.121 41.005H141.618L159.532 28.2345ZM140.462 16.7441L158.516 27.6227L140.462 40.4931V16.7441ZM189.365 15.781C189.365 15.776 189.364 15.7709 189.364 15.7659C189.363 15.758 189.362 15.7507 189.362 15.7429C189.361 15.7176 189.357 15.6924 189.352 15.6677C189.35 15.6609 189.349 15.6542 189.348 15.6475C189.34 15.6183 189.33 15.5897 189.318 15.5616C189.315 15.5549 189.311 15.5476 189.308 15.5408C189.296 15.5184 189.284 15.4971 189.269 15.4763C189.265 15.469 189.261 15.4628 189.256 15.4566C189.238 15.4314 189.217 15.4078 189.194 15.3865C189.192 15.3848 189.191 15.382 189.188 15.3798L183.378 10.0614V0.546103C183.378 0.245838 183.135 0.0022583 182.835 0.0022583H145.905C145.604 0.0022583 145.361 0.245838 145.361 0.546103V10.062L139.551 15.3798C139.549 15.382 139.548 15.3848 139.545 15.3865C139.522 15.4078 139.502 15.4314 139.483 15.4566C139.478 15.4628 139.474 15.4696 139.47 15.4763C139.456 15.4971 139.443 15.5178 139.432 15.5408C139.429 15.5476 139.424 15.5549 139.421 15.5616C139.409 15.5897 139.399 15.6183 139.392 15.6475C139.39 15.6542 139.389 15.6615 139.388 15.6677C139.382 15.6929 139.379 15.7176 139.377 15.7429C139.376 15.7507 139.376 15.758 139.375 15.7659C139.375 15.7709 139.374 15.776 139.374 15.781V41.5488C139.374 41.5511 139.375 41.5533 139.375 41.5556C139.375 41.5786 139.379 41.6016 139.382 41.624C139.384 41.6364 139.384 41.6504 139.386 41.6628C139.39 41.6807 139.397 41.6987 139.403 41.7172C139.409 41.7329 139.413 41.7492 139.419 41.7643C139.425 41.7784 139.434 41.7907 139.441 41.8042C139.45 41.8221 139.46 41.8412 139.472 41.8586C139.473 41.8603 139.474 41.8626 139.475 41.8648C139.491 41.8878 139.51 41.9086 139.53 41.9288C139.534 41.9322 139.537 41.9361 139.541 41.94C139.563 41.9613 139.587 41.981 139.612 41.9978C139.613 41.9984 139.614 41.9995 139.615 42.0006C139.641 42.018 139.668 42.0321 139.696 42.0444C139.703 42.0472 139.709 42.0506 139.715 42.0528C139.743 42.0646 139.773 42.0736 139.802 42.0798C139.808 42.0809 139.814 42.082 139.82 42.0831C139.852 42.0887 139.885 42.0927 139.917 42.0932C139.918 42.0932 139.918 42.0932 139.919 42.0932H188.821C188.821 42.0932 188.821 42.0932 188.822 42.0932C188.854 42.0927 188.886 42.0887 188.919 42.0831C188.925 42.082 188.931 42.0809 188.937 42.0798C188.967 42.0736 188.995 42.0646 189.023 42.0528C189.03 42.0506 189.036 42.0472 189.042 42.0444C189.071 42.0321 189.098 42.018 189.124 42.0006C189.126 41.9995 189.126 41.9984 189.128 41.9978C189.152 41.981 189.175 41.9613 189.198 41.94C189.202 41.9361 189.206 41.9322 189.21 41.9288C189.229 41.9086 189.247 41.8878 189.264 41.8648C189.265 41.8626 189.266 41.8603 189.268 41.8586C189.279 41.8412 189.289 41.8221 189.299 41.8042C189.306 41.7907 189.314 41.7784 189.32 41.7643C189.326 41.7492 189.33 41.7329 189.336 41.7172C189.341 41.6987 189.348 41.6807 189.352 41.6628C189.355 41.6504 189.355 41.6364 189.357 41.624C189.361 41.6016 189.364 41.5786 189.364 41.5556C189.364 41.5533 189.365 41.5511 189.365 41.5488V15.781Z" fill="#12908E"/>
</g>
<path d="M151.925 16.3249H176.815C177.115 16.3249 177.358 16.0813 177.358 15.781C177.358 15.4808 177.115 15.2372 176.815 15.2372H151.925C151.624 15.2372 151.381 15.4808 151.381 15.781C151.381 16.0813 151.624 16.3249 151.925 16.3249Z" fill="#12908E"/>
<path d="M151.925 21.5287H176.815C177.115 21.5287 177.358 21.2851 177.358 20.9849C177.358 20.6846 177.115 20.441 176.815 20.441H151.925C151.624 20.441 151.381 20.6846 151.381 20.9849C151.381 21.2851 151.624 21.5287 151.925 21.5287Z" fill="#12908E"/>
<path d="M152.689 12.2671C152.99 12.2671 153.233 12.0235 153.233 11.7233V6.77142L156.221 11.9932C156.32 12.1655 156.502 12.2671 156.693 12.2671C156.739 12.2671 156.786 12.2615 156.833 12.2486C157.071 12.1857 157.237 11.9697 157.237 11.7233V4.60671C157.237 4.30645 156.993 4.06287 156.693 4.06287C156.393 4.06287 156.149 4.30645 156.149 4.60671V9.67754L153.162 4.4563C153.039 4.2419 152.788 4.13695 152.55 4.20093C152.311 4.26379 152.145 4.47987 152.145 4.72569V11.7233C152.145 12.0235 152.389 12.2671 152.689 12.2671Z" fill="#12908E"/>
<path d="M174.273 11.1789C173.218 11.1508 173.012 10.5699 172.995 10.516C172.922 10.2242 172.627 10.0463 172.337 10.1192C172.045 10.1911 171.867 10.4863 171.939 10.7776C171.954 10.8359 172.317 12.2144 174.244 12.266C174.262 12.2666 174.28 12.2666 174.299 12.2666C175.345 12.2666 176.351 11.4528 176.556 10.4279C176.641 10.0008 176.742 8.53878 174.454 7.65763C173.43 7.26307 172.911 6.70127 173.029 6.11477C173.132 5.59618 173.691 5.13708 174.244 5.15055C175.29 5.17918 175.501 5.74996 175.525 5.82405C175.601 6.1086 175.893 6.28202 176.18 6.21074C176.472 6.1389 176.65 5.84369 176.577 5.5524C176.563 5.49404 176.2 4.11562 174.273 4.06399C173.214 4.04491 172.17 4.85927 171.962 5.90206C171.876 6.32916 171.775 7.7912 174.063 8.67291C175.087 9.06691 175.606 9.62927 175.489 10.2152C175.385 10.7332 174.83 11.1862 174.273 11.1789Z" fill="#12908E"/>
<path d="M166.028 12.2603C166.057 12.2648 166.085 12.2671 166.113 12.2671C166.327 12.2671 166.525 12.1408 166.612 11.9399L167.895 8.97874L169.178 11.9399C169.265 12.1408 169.462 12.2671 169.676 12.2671C169.704 12.2671 169.733 12.2648 169.761 12.2603C170.006 12.2216 170.194 12.0218 170.218 11.7754L170.9 4.65885C170.929 4.35971 170.709 4.09424 170.411 4.06506C170.113 4.03812 169.846 4.25588 169.818 4.55502L169.337 9.57029L168.394 7.39435C168.389 7.38369 168.382 7.37415 168.377 7.36404C168.367 7.34496 168.357 7.32588 168.345 7.30792C168.336 7.29389 168.325 7.28154 168.315 7.26863C168.303 7.2546 168.292 7.24001 168.279 7.22654C168.265 7.21363 168.251 7.2024 168.237 7.19118C168.224 7.18052 168.211 7.16873 168.197 7.15975C168.179 7.14796 168.161 7.13898 168.142 7.12888C168.132 7.12327 168.122 7.11653 168.111 7.11148C168.108 7.11036 168.106 7.1098 168.103 7.10924C168.083 7.10082 168.063 7.09521 168.042 7.0896C168.028 7.08567 168.014 7.08005 168 7.07725C167.983 7.07444 167.965 7.07332 167.948 7.07164C167.93 7.06995 167.912 7.06715 167.894 7.06715C167.88 7.06715 167.866 7.06939 167.852 7.07051C167.831 7.0722 167.809 7.07332 167.789 7.07781C167.777 7.08005 167.766 7.08454 167.754 7.08735C167.73 7.09352 167.707 7.10026 167.685 7.10924C167.683 7.11036 167.681 7.11092 167.679 7.11148C167.669 7.11597 167.661 7.12215 167.651 7.12664C167.63 7.1373 167.61 7.1474 167.591 7.15975C167.578 7.16873 167.567 7.17883 167.555 7.18837C167.54 7.20072 167.524 7.21307 167.51 7.2271C167.498 7.23945 167.487 7.25292 167.477 7.26639C167.465 7.28042 167.453 7.29333 167.444 7.30848C167.432 7.32588 167.423 7.3444 167.413 7.36292C167.408 7.37302 167.401 7.38313 167.396 7.39435L166.453 9.57029L165.972 4.55502C165.944 4.25588 165.677 4.03812 165.379 4.06506C165.08 4.09424 164.861 4.35971 164.889 4.65885L165.571 11.7754C165.595 12.0218 165.783 12.2216 166.028 12.2603Z" fill="#12908E"/>
<path d="M159.591 12.2666H163.672C163.973 12.2666 164.216 12.0235 164.216 11.7227C164.216 11.4224 163.973 11.1789 163.672 11.1789H160.135V8.70883H161.796C162.096 8.70883 162.34 8.46526 162.34 8.16499C162.34 7.86473 162.096 7.62115 161.796 7.62115H160.135V5.15055H163.672C163.973 5.15055 164.216 4.90754 164.216 4.60671C164.216 4.30645 163.973 4.06287 163.672 4.06287H159.591C159.291 4.06287 159.047 4.30645 159.047 4.60671V11.7227C159.047 12.0235 159.291 12.2666 159.591 12.2666Z" fill="#12908E"/>
<path d="M2.37656 72.9836V57.6636H2.39656L10.5766 69.2636L9.33656 68.9836L17.4966 57.6636H17.5366V72.9836H14.6366V64.2036L14.8166 65.7036L9.83656 72.7836H9.79656L4.67656 65.7036L5.17656 64.3236V72.9836H2.37656ZM20.4414 65.6436C20.4414 64.6302 20.6347 63.6702 21.0214 62.7636C21.4081 61.8569 21.9414 61.0569 22.6214 60.3636C23.3147 59.6569 24.1147 59.1036 25.0214 58.7036C25.9281 58.3036 26.9014 58.1036 27.9414 58.1036C28.9681 58.1036 29.9347 58.3036 30.8414 58.7036C31.7481 59.1036 32.5481 59.6569 33.2414 60.3636C33.9481 61.0569 34.4947 61.8569 34.8814 62.7636C35.2814 63.6702 35.4814 64.6302 35.4814 65.6436C35.4814 66.6836 35.2814 67.6569 34.8814 68.5636C34.4947 69.4702 33.9481 70.2702 33.2414 70.9636C32.5481 71.6436 31.7481 72.1769 30.8414 72.5636C29.9347 72.9502 28.9681 73.1436 27.9414 73.1436C26.9014 73.1436 25.9281 72.9502 25.0214 72.5636C24.1147 72.1769 23.3147 71.6436 22.6214 70.9636C21.9414 70.2702 21.4081 69.4702 21.0214 68.5636C20.6347 67.6569 20.4414 66.6836 20.4414 65.6436ZM23.4414 65.6436C23.4414 66.2969 23.5547 66.9102 23.7814 67.4836C24.0214 68.0436 24.3481 68.5436 24.7614 68.9836C25.1881 69.4102 25.6747 69.7436 26.2214 69.9836C26.7814 70.2236 27.3881 70.3436 28.0414 70.3436C28.6681 70.3436 29.2481 70.2236 29.7814 69.9836C30.3281 69.7436 30.8014 69.4102 31.2014 68.9836C31.6014 68.5436 31.9147 68.0436 32.1414 67.4836C32.3681 66.9102 32.4814 66.2969 32.4814 65.6436C32.4814 64.9769 32.3614 64.3569 32.1214 63.7836C31.8947 63.2102 31.5747 62.7102 31.1614 62.2836C30.7614 61.8436 30.2881 61.5036 29.7414 61.2636C29.1947 61.0236 28.6014 60.9036 27.9614 60.9036C27.3214 60.9036 26.7281 61.0236 26.1814 61.2636C25.6347 61.5036 25.1547 61.8436 24.7414 62.2836C24.3281 62.7102 24.0081 63.2102 23.7814 63.7836C23.5547 64.3569 23.4414 64.9769 23.4414 65.6436ZM51.5527 73.5836L40.3927 63.5036L41.2527 63.9836L41.3127 72.9836H38.3727V57.6836H38.4927L49.4127 67.7236L48.7727 67.4436L48.7127 58.2636H51.6327V73.5836H51.5527ZM54.4234 58.2636H64.3434V61.0636H60.7634V72.9836H57.8634V61.0636H54.4234V58.2636ZM79.5222 58.2636V72.9836H76.6222V67.0036H70.0422V72.9836H67.1422V58.2636H70.0422V64.2036H76.6222V58.2636H79.5222ZM83.3141 58.2636H86.2141V70.1836H93.1341V72.9836H83.3141V58.2636ZM97.5442 68.4036L92.1242 58.2636H95.7042L99.5042 65.9036L98.6442 65.9636L102.384 58.2636H105.964L100.444 68.4036V72.9836H97.5442V68.4036ZM127.842 73.5836L116.682 63.5036L117.542 63.9836L117.602 72.9836H114.662V57.6836H114.782L125.702 67.7236L125.062 67.4436L125.002 58.2636H127.922V73.5836H127.842ZM131.713 58.2636H141.753V61.0636H134.613V64.2036H140.933V67.0036H134.613V70.1836H142.033V72.9836H131.713V58.2636ZM143.773 58.3636H147.173L150.313 67.6036L149.853 67.4036L152.593 60.5836L153.933 64.5636L149.693 73.6636L143.773 58.3636ZM151.153 58.3636H154.033L157.653 67.3036L157.133 67.2236L159.833 58.3636H162.953L157.273 73.6236L151.153 58.3636ZM173.362 61.8236C172.802 61.5169 172.228 61.2636 171.642 61.0636C171.068 60.8636 170.528 60.7636 170.022 60.7636C169.395 60.7636 168.902 60.8902 168.542 61.1436C168.182 61.3969 168.002 61.7769 168.002 62.2836C168.002 62.6302 168.135 62.9436 168.402 63.2236C168.682 63.4902 169.035 63.7302 169.462 63.9436C169.902 64.1569 170.355 64.3502 170.822 64.5236C171.248 64.6836 171.668 64.8769 172.082 65.1036C172.508 65.3169 172.888 65.5902 173.222 65.9236C173.555 66.2436 173.822 66.6502 174.022 67.1436C174.222 67.6236 174.322 68.2169 174.322 68.9236C174.322 69.6702 174.128 70.3636 173.742 71.0036C173.355 71.6436 172.788 72.1636 172.042 72.5636C171.295 72.9502 170.375 73.1436 169.282 73.1436C168.722 73.1436 168.148 73.0902 167.562 72.9836C166.988 72.8636 166.422 72.6902 165.862 72.4636C165.302 72.2236 164.762 71.9236 164.242 71.5636L165.522 69.3036C165.868 69.5569 166.242 69.7836 166.642 69.9836C167.055 70.1702 167.468 70.3169 167.882 70.4236C168.295 70.5302 168.675 70.5836 169.022 70.5836C169.368 70.5836 169.715 70.5369 170.062 70.4436C170.422 70.3369 170.715 70.1636 170.942 69.9236C171.182 69.6836 171.302 69.3502 171.302 68.9236C171.302 68.6302 171.202 68.3636 171.002 68.1236C170.815 67.8836 170.555 67.6636 170.222 67.4636C169.902 67.2636 169.548 67.0902 169.162 66.9436C168.708 66.7702 168.242 66.5702 167.762 66.3436C167.282 66.1169 166.828 65.8436 166.402 65.5236C165.988 65.1902 165.648 64.7836 165.382 64.3036C165.128 63.8102 165.002 63.2102 165.002 62.5036C165.002 61.6502 165.188 60.9102 165.562 60.2836C165.948 59.6569 166.488 59.1636 167.182 58.8036C167.875 58.4302 168.675 58.2236 169.582 58.1836C170.768 58.1836 171.728 58.3236 172.462 58.6036C173.208 58.8836 173.875 59.2169 174.462 59.6036L173.362 61.8236ZM177.162 58.2636H180.062V70.1836H186.982V72.9836H177.162V58.2636ZM189.974 58.2636H200.014V61.0636H192.874V64.2036H199.194V67.0036H192.874V70.1836H200.294V72.9836H189.974V58.2636ZM202.295 58.2636H212.215V61.0636H208.635V72.9836H205.735V61.0636H202.295V58.2636ZM214.013 58.2636H223.933V61.0636H220.353V72.9836H217.453V61.0636H214.013V58.2636ZM226.732 58.2636H236.772V61.0636H229.632V64.2036H235.952V67.0036H229.632V70.1836H237.052V72.9836H226.732V58.2636ZM244.512 58.2636C245.432 58.2636 246.252 58.3836 246.972 58.6236C247.692 58.8502 248.292 59.1836 248.772 59.6236C249.266 60.0502 249.639 60.5702 249.892 61.1836C250.146 61.7836 250.272 62.4636 250.272 63.2236C250.272 63.8236 250.179 64.4236 249.992 65.0236C249.819 65.6236 249.526 66.1702 249.112 66.6636C248.712 67.1569 248.179 67.5569 247.512 67.8636C246.846 68.1569 246.019 68.3036 245.032 68.3036H242.952V72.9836H240.052V58.2636H244.512ZM245.012 65.5036C245.452 65.5036 245.819 65.4302 246.112 65.2836C246.406 65.1369 246.632 64.9502 246.792 64.7236C246.966 64.4969 247.086 64.2636 247.152 64.0236C247.232 63.7702 247.272 63.5369 247.272 63.3236C247.272 63.1636 247.246 62.9636 247.192 62.7236C247.152 62.4702 247.059 62.2169 246.912 61.9636C246.766 61.7102 246.539 61.4969 246.232 61.3236C245.939 61.1502 245.539 61.0636 245.032 61.0636H242.952V65.5036H245.012ZM247.732 67.3036L251.372 72.9836H247.992L244.272 67.3836L247.732 67.3036ZM261.623 61.8236C261.063 61.5169 260.49 61.2636 259.903 61.0636C259.33 60.8636 258.79 60.7636 258.283 60.7636C257.657 60.7636 257.163 60.8902 256.803 61.1436C256.443 61.3969 256.263 61.7769 256.263 62.2836C256.263 62.6302 256.397 62.9436 256.663 63.2236C256.943 63.4902 257.297 63.7302 257.723 63.9436C258.163 64.1569 258.617 64.3502 259.083 64.5236C259.51 64.6836 259.93 64.8769 260.343 65.1036C260.77 65.3169 261.15 65.5902 261.483 65.9236C261.817 66.2436 262.083 66.6502 262.283 67.1436C262.483 67.6236 262.583 68.2169 262.583 68.9236C262.583 69.6702 262.39 70.3636 262.003 71.0036C261.617 71.6436 261.05 72.1636 260.303 72.5636C259.557 72.9502 258.637 73.1436 257.543 73.1436C256.983 73.1436 256.41 73.0902 255.823 72.9836C255.25 72.8636 254.683 72.6902 254.123 72.4636C253.563 72.2236 253.023 71.9236 252.503 71.5636L253.783 69.3036C254.13 69.5569 254.503 69.7836 254.903 69.9836C255.317 70.1702 255.73 70.3169 256.143 70.4236C256.557 70.5302 256.937 70.5836 257.283 70.5836C257.63 70.5836 257.977 70.5369 258.323 70.4436C258.683 70.3369 258.977 70.1636 259.203 69.9236C259.443 69.6836 259.563 69.3502 259.563 68.9236C259.563 68.6302 259.463 68.3636 259.263 68.1236C259.077 67.8836 258.817 67.6636 258.483 67.4636C258.163 67.2636 257.81 67.0902 257.423 66.9436C256.97 66.7702 256.503 66.5702 256.023 66.3436C255.543 66.1169 255.09 65.8436 254.663 65.5236C254.25 65.1902 253.91 64.7836 253.643 64.3036C253.39 63.8102 253.263 63.2102 253.263 62.5036C253.263 61.6502 253.45 60.9102 253.823 60.2836C254.21 59.6569 254.75 59.1636 255.443 58.8036C256.137 58.4302 256.937 58.2236 257.843 58.1836C259.03 58.1836 259.99 58.3236 260.723 58.6036C261.47 58.8836 262.137 59.2169 262.723 59.6036L261.623 61.8236Z" fill="#333333"/>
<mask id="mask1_35_348" style="mask-type:luminance" maskUnits="userSpaceOnUse" x="287" y="47" width="42" height="42">
<path d="M328.7 47.1336V88.8336H287V47.1336H328.7Z" fill="white"/>
</mask>
<g mask="url(#mask1_35_348)">
<path d="M307.85 47.1336C296.353 47.1336 287 56.4862 287 67.9836C287 79.481 296.353 88.8336 307.85 88.8336C319.347 88.8336 328.7 79.481 328.7 67.9836C328.7 56.4862 319.347 47.1336 307.85 47.1336ZM313.889 69.0336L305.407 77.5149C305.117 77.8055 304.737 77.9544 304.357 77.9544C303.978 77.9544 303.591 77.8055 303.3 77.5149C302.719 76.9341 302.719 75.9883 303.3 75.4076L310.732 67.9836L303.3 60.5518C302.719 59.9711 302.719 59.0331 303.3 58.4445C303.888 57.8638 304.827 57.8638 305.407 58.4445L313.889 66.9263C314.47 67.507 314.47 68.4529 313.889 69.0336Z" fill="#97CECC"/>
</g>
</svg>
