<svg width="31" height="30" viewBox="0 0 31 30" fill="none" xmlns="http://www.w3.org/2000/svg">
<mask id="mask0_13_383" style="mask-type:luminance" maskUnits="userSpaceOnUse" x="0" y="0" width="31" height="30">
<path d="M0.905396 0.758423H30.4897V29.5504H0.905396V0.758423Z" fill="white"/>
</mask>
<g mask="url(#mask0_13_383)">
<path d="M22.9639 0.758423H8.43123C4.27904 0.758423 0.905396 4.04172 0.905396 8.0827V22.2261C0.905396 26.2671 4.27904 29.5504 8.43123 29.5504H22.9639C27.116 29.5504 30.4897 26.2671 30.4897 22.2261V8.0827C30.4897 4.04172 27.116 0.758423 22.9639 0.758423ZM28.9326 22.2261C28.9326 25.434 26.26 28.035 22.9639 28.035H8.43123C5.13597 28.035 2.46246 25.434 2.46246 22.2261V8.0827C2.46246 4.8757 5.13597 2.27379 8.43123 2.27379H22.9639C26.26 2.27379 28.9326 4.8757 28.9326 8.0827V22.2261Z" fill="white"/>
</g>
<path d="M15.6976 7.57764C11.4156 7.57764 7.91223 10.9872 7.91223 15.1545C7.91223 19.3217 11.4156 22.7313 15.6976 22.7313C19.9795 22.7313 23.4829 19.3217 23.4829 15.1545C23.4829 10.9872 19.9795 7.57764 15.6976 7.57764ZM15.6976 21.2159C12.2726 21.2159 9.4693 18.4886 9.4693 15.1545C9.4693 11.8212 12.2726 9.093 15.6976 9.093C19.1235 9.093 21.9258 11.8212 21.9258 15.1545C21.9258 18.4886 19.1235 21.2159 15.6976 21.2159Z" fill="white"/>
<path d="M25.8185 6.31481C25.8185 6.41478 25.8086 6.513 25.7887 6.61121C25.7689 6.70856 25.7392 6.80327 25.7004 6.89535C25.6608 6.98655 25.613 7.07424 25.5563 7.15668C25.4995 7.23999 25.4346 7.31628 25.3625 7.38644C25.2904 7.45747 25.2121 7.51973 25.1265 7.57498C25.0417 7.63023 24.9516 7.67671 24.8579 7.71529C24.7633 7.753 24.666 7.78194 24.5651 7.80123C24.4651 7.82053 24.3641 7.83017 24.2614 7.83017C24.1596 7.83017 24.0587 7.82053 23.9577 7.80123C23.8577 7.78194 23.7604 7.753 23.6658 7.71529C23.5712 7.67671 23.482 7.63023 23.3964 7.57498C23.3117 7.51973 23.2333 7.45747 23.1603 7.38644C23.0882 7.31628 23.0242 7.23999 22.9675 7.15668C22.9107 7.07424 22.862 6.98655 22.8233 6.89535C22.7836 6.80327 22.7548 6.70856 22.735 6.61121C22.7143 6.513 22.7043 6.41478 22.7043 6.31481C22.7043 6.21571 22.7143 6.11749 22.735 6.01927C22.7548 5.92193 22.7836 5.82722 22.8233 5.73514C22.862 5.64306 22.9107 5.55625 22.9675 5.47294C23.0242 5.3905 23.0882 5.31421 23.1603 5.24405C23.2333 5.17302 23.3117 5.11076 23.3964 5.05551C23.482 5.00026 23.5712 4.9529 23.6658 4.9152C23.7604 4.87749 23.8577 4.84855 23.9577 4.82925C24.0587 4.80908 24.1596 4.79944 24.2614 4.79944C24.3641 4.79944 24.4651 4.80908 24.5651 4.82925C24.666 4.84855 24.7633 4.87749 24.8579 4.9152C24.9516 4.9529 25.0417 5.00026 25.1265 5.05551C25.2121 5.11076 25.2904 5.17302 25.3625 5.24405C25.4346 5.31421 25.4995 5.3905 25.5563 5.47294C25.613 5.55625 25.6608 5.64306 25.7004 5.73514C25.7392 5.82722 25.7689 5.92193 25.7887 6.01927C25.8086 6.11749 25.8185 6.21571 25.8185 6.31481Z" fill="white"/>
<path d="M17.2546 15.1544C17.2546 15.2544 17.2447 15.3526 17.2249 15.4508C17.2051 15.5482 17.1753 15.6429 17.1366 15.7349C17.097 15.8261 17.0492 15.9138 16.9924 15.9963C16.9357 16.0796 16.8708 16.1559 16.7987 16.226C16.7266 16.2962 16.6482 16.3593 16.5626 16.4146C16.4779 16.4698 16.3878 16.5163 16.2941 16.5549C16.1995 16.5926 16.1022 16.6215 16.0012 16.6408C15.9012 16.6601 15.8003 16.6698 15.6976 16.6698C15.5957 16.6698 15.4948 16.6601 15.3939 16.6408C15.2939 16.6215 15.1966 16.5926 15.102 16.5549C15.0073 16.5163 14.9181 16.4698 14.8325 16.4146C14.7478 16.3593 14.6694 16.2962 14.5964 16.226C14.5244 16.1559 14.4604 16.0796 14.4036 15.9963C14.3469 15.9138 14.2982 15.8261 14.2594 15.7349C14.2198 15.6429 14.191 15.5482 14.1711 15.4508C14.1504 15.3526 14.1405 15.2544 14.1405 15.1544C14.1405 15.0553 14.1504 14.9571 14.1711 14.8589C14.191 14.7615 14.2198 14.6668 14.2594 14.5747C14.2982 14.4827 14.3469 14.3958 14.4036 14.3125C14.4604 14.2301 14.5244 14.1538 14.5964 14.0837C14.6694 14.0126 14.7478 13.9504 14.8325 13.8951C14.9181 13.8399 15.0073 13.7925 15.102 13.7548C15.1966 13.7171 15.2939 13.6881 15.3939 13.6689C15.4948 13.6487 15.5957 13.639 15.6976 13.639C15.8003 13.639 15.9012 13.6487 16.0012 13.6689C16.1022 13.6881 16.1995 13.7171 16.2941 13.7548C16.3878 13.7925 16.4779 13.8399 16.5626 13.8951C16.6482 13.9504 16.7266 14.0126 16.7987 14.0837C16.8708 14.1538 16.9357 14.2301 16.9924 14.3125C17.0492 14.3958 17.097 14.4827 17.1366 14.5747C17.1753 14.6668 17.2051 14.7615 17.2249 14.8589C17.2447 14.9571 17.2546 15.0553 17.2546 15.1544Z" fill="white"/>
</svg>
