<svg width="30" height="42" viewBox="0 0 30 42" fill="none" xmlns="http://www.w3.org/2000/svg">
<mask id="mask0_13_357" style="mask-type:luminance" maskUnits="userSpaceOnUse" x="0" y="0" width="30" height="42">
<path d="M0.00695801 0H29.5913V41.2395H0.00695801V0Z" fill="white"/>
</mask>
<g mask="url(#mask0_13_357)">
<path fill-rule="evenodd" clip-rule="evenodd" d="M14.7996 0.013916C22.9692 0.013916 29.5918 6.45815 29.5918 14.4074C29.5918 17.1737 28.7897 19.7568 27.3999 21.95C25.733 24.6369 24.0656 27.3242 22.3988 30.0115C20.3681 33.2232 18.7252 35.8217 16.6951 39.0334C14.9052 41.8647 14.7843 41.9342 12.9848 39.0885C10.9648 35.8932 9.26685 33.2068 7.24691 30.0115C5.58361 27.3545 3.92082 24.6974 2.25701 22.0409C0.832486 19.8278 0.00695801 17.2119 0.00695801 14.4074C0.00695801 6.45815 6.63006 0.013916 14.7996 0.013916ZM14.7996 7.23028C18.4619 7.23028 21.4309 10.1192 21.4309 13.683C21.4309 17.2467 18.4619 20.1356 14.7996 20.1356C11.1368 20.1356 8.16784 17.2467 8.16784 13.683C8.16835 10.1192 11.1373 7.23028 14.7996 7.23028Z" fill="white"/>
</g>
</svg>
