<svg width="132" height="53" viewBox="0 0 132 53" fill="none" xmlns="http://www.w3.org/2000/svg">
<mask id="mask0_2149_366" style="mask-type:luminance" maskUnits="userSpaceOnUse" x="110" y="11" width="11" height="34">
<path d="M110.64 11.1982H120.995V44.4657H110.64V11.1982Z" fill="white"/>
</mask>
<g mask="url(#mask0_2149_366)">
<mask id="mask1_2149_366" style="mask-type:luminance" maskUnits="userSpaceOnUse" x="97" y="1" width="32" height="44">
<path d="M97.2017 2.78139L127.102 1.66626L128.908 43.8559L99.0077 44.971L97.2017 2.78139Z" fill="white"/>
</mask>
<g mask="url(#mask1_2149_366)">
<mask id="mask2_2149_366" style="mask-type:luminance" maskUnits="userSpaceOnUse" x="97" y="1" width="32" height="44">
<path d="M127.17 1.66309L97.2695 2.77822L99.0755 44.969L128.976 43.8538L127.17 1.66309Z" fill="white"/>
</mask>
<g mask="url(#mask2_2149_366)">
<mask id="mask3_2149_366" style="mask-type:luminance" maskUnits="userSpaceOnUse" x="110" y="10" width="12" height="35">
<path d="M119.836 10.9382L110.73 11.2781L112.154 44.5567L121.26 44.2179L119.836 10.9382Z" fill="white"/>
</mask>
<g mask="url(#mask3_2149_366)">
<mask id="mask4_2149_366" style="mask-type:luminance" maskUnits="userSpaceOnUse" x="110" y="10" width="12" height="35">
<path d="M119.836 10.9382L110.73 11.2781L112.149 44.4456L121.256 44.1057L119.836 10.9382Z" fill="white"/>
</mask>
<g mask="url(#mask4_2149_366)">
<path d="M110.799 11.6104C110.957 11.7548 111.118 11.9048 111.277 12.0581C111.435 12.2113 111.592 12.369 111.749 12.5312C112.317 13.121 112.884 13.7774 113.428 14.4916C114.115 15.4079 114.778 16.4131 115.358 17.5027C115.946 18.5878 116.461 19.7507 116.897 20.9558C117.111 21.56 117.305 22.1753 117.478 22.7962C117.559 23.1083 117.646 23.4215 117.715 23.7303C117.751 23.8858 117.789 24.038 117.822 24.2035L117.922 24.68C118.162 25.9539 118.329 27.2357 118.43 28.5018C118.512 29.7725 118.543 31.0242 118.518 32.236C118.481 33.45 118.422 34.6218 118.311 35.7336C118.267 36.2878 118.199 36.8298 118.145 37.3518C118.083 37.8739 118.012 38.3792 117.952 38.8635C117.88 39.3478 117.811 39.8131 117.747 40.2541C117.675 40.6961 117.608 41.1149 117.544 41.5069C117.409 42.2955 117.29 42.9819 117.186 43.5451C117.136 43.8116 117.092 44.0515 117.05 44.2626L120.25 44.1437C120.257 44.0749 120.265 44.006 120.272 43.9349C120.334 43.3518 120.403 42.6454 120.478 41.8346C120.511 41.4281 120.548 40.9949 120.586 40.5395C120.618 40.0819 120.651 39.6021 120.687 39.099C120.712 38.5958 120.743 38.0727 120.764 37.5296C120.78 36.9864 120.808 36.4255 120.81 35.8469C120.833 34.6906 120.802 33.4666 120.742 32.2027C120.671 30.9376 120.539 29.6325 120.35 28.3119C120.142 26.9935 119.865 25.664 119.51 24.3523L119.37 23.8647C119.326 23.707 119.271 23.5404 119.219 23.376C119.118 23.0439 119.004 22.7251 118.892 22.4041C118.658 21.7655 118.409 21.1357 118.135 20.5215C117.584 19.2942 116.956 18.1235 116.261 17.0395C115.572 15.9521 114.807 14.9581 114.028 14.0629C113.43 13.3875 112.816 12.77 112.205 12.2191C112.013 12.0447 111.822 11.8781 111.631 11.7171C111.49 11.5993 111.351 11.486 111.214 11.3772C111.082 11.4694 110.944 11.5449 110.799 11.6104Z" fill="#C4421A"/>
</g>
</g>
</g>
</g>
</g>
<path d="M18.6754 20.9C21.2702 20.9 23.288 19.8226 24.3254 18.101H24.3551L24.3837 18.7197C24.4705 19.9581 25.364 20.9 26.7762 20.9C27.9005 20.9 29.1116 20.3346 29.716 19.5005L28.5346 18.2088C28.217 18.693 27.7566 19.0162 27.3532 19.0162C26.8916 19.0162 26.574 18.6386 26.574 18.101V11.2114C26.574 8.17034 23.9506 6.23218 20.2328 6.23218C16.4566 6.23218 13.631 8.33139 13.3716 10.565L15.3609 11.3458C15.4763 9.73086 17.4072 8.08925 20.1459 8.08925C22.6824 8.08925 24.4122 9.19328 24.4122 10.8882C24.4122 11.4802 23.9506 11.8567 23.2309 11.9378L19.6272 12.3421C14.8992 12.8797 13.0552 14.629 13.0552 16.8093C13.0552 19.2306 15.3609 20.9 18.6754 20.9ZM19.0502 19.0429C16.8313 19.0429 15.2455 18.1543 15.2455 16.7815C15.2455 15.5442 16.3412 14.4946 19.858 14.0903L24.3551 13.5794V14.5479C24.3551 17.1858 22.1066 19.0429 19.0502 19.0429Z" fill="#333333"/>
<path d="M37.4711 26.5514C42.3716 26.5514 45.629 23.6981 45.629 19.2853V6.77113H43.6684L43.4376 8.97807H43.409C42.2276 7.38978 39.979 6.28687 37.8744 6.28687C33.5795 6.28687 30.61 9.19355 30.61 13.4719C30.61 17.6437 33.5795 20.5226 37.8744 20.5226C39.9207 20.5226 42.2276 19.473 43.3804 17.7781H43.409V19.2853C43.409 22.5685 41.0165 24.6944 37.4128 24.6944C34.7609 24.6944 32.2815 23.4559 31.1287 21.5722L29.4286 22.9184C30.8408 25.0975 34.0399 26.5514 37.4711 26.5514ZM38.1623 18.6666C34.9917 18.6666 32.8014 16.5397 32.8014 13.4719C32.8014 10.2965 34.9917 8.11618 38.1623 8.11618C41.3044 8.11618 43.4958 10.4309 43.4958 13.4719C43.4958 16.4319 41.3044 18.6666 38.1623 18.6666Z" fill="#333333"/>
<path d="M53.7574 20.9001C56.2939 20.9001 58.1106 19.9849 59.3503 18.3433H59.3789L59.5811 20.3614H61.5703V6.771H59.3789V14.4403C59.3789 17.2126 57.2743 19.123 54.363 19.123C52.0573 19.123 50.5868 17.6436 50.5868 15.3289V6.771H48.3668V15.5444C48.3668 18.9086 50.4143 20.9001 53.7574 20.9001Z" fill="#333333"/>
<path d="M72.2648 6.23218C69.7283 6.23218 67.9116 7.14739 66.6719 8.78899H66.6434L66.4411 6.77086H64.4519V20.3613H66.6434V12.692C66.6434 9.91968 68.748 8.00928 71.6592 8.00928C73.9649 8.00928 75.4354 9.48873 75.4354 11.8034V20.3613H77.6554V11.5879C77.6554 8.22365 75.6079 6.23218 72.2648 6.23218Z" fill="#333333"/>
<path d="M85.1494 20.9C87.7442 20.9 89.762 19.8226 90.7994 18.101H90.8291L90.8577 18.7197C90.9445 19.9581 91.838 20.9 93.2502 20.9C94.3745 20.9 95.5856 20.3346 96.19 19.5005L95.0086 18.2088C94.691 18.693 94.2306 19.0162 93.8272 19.0162C93.3656 19.0162 93.048 18.6386 93.048 18.101V11.2114C93.048 8.17034 90.4246 6.23218 86.7068 6.23218C82.9306 6.23218 80.105 8.33139 79.8456 10.565L81.8349 11.3458C81.9503 9.73086 83.8812 8.08925 86.6199 8.08925C89.1564 8.08925 90.8862 9.19328 90.8862 10.8882C90.8862 11.4802 90.4246 11.8567 89.7049 11.9378L86.1012 12.3421C81.3732 12.8797 79.5292 14.629 79.5292 16.8093C79.5292 19.2306 81.8349 20.9 85.1494 20.9ZM85.5242 19.0429C83.3053 19.0429 81.7195 18.1543 81.7195 16.7815C81.7195 15.5442 82.8152 14.4946 86.332 14.0903L90.8291 13.5794V14.5479C90.8291 17.1858 88.5806 19.0429 85.5242 19.0429Z" fill="#333333"/>
<path d="M53.0464 44.0324H55.8137L63.6254 25.0596H61.0889L54.4872 41.5833H54.4301L47.7712 25.0596H45.2335L53.0464 44.0324Z" fill="#333333"/>
<path d="M64.4213 42.6838C64.4213 43.3146 64.9326 43.826 65.5634 43.826C66.1942 43.826 66.7055 43.3146 66.7055 42.6838V7.43559C66.7055 6.80481 66.1942 6.29346 65.5634 6.29346C64.9326 6.29346 64.4213 6.80481 64.4213 7.43559V42.6838Z" fill="#333333"/>
<path d="M75.8005 44.3868C79.3185 44.3868 81.9704 42.5031 81.9704 39.9462C81.9704 37.927 80.4999 36.7974 77.0699 36.1244L74.7059 35.6934C72.6882 35.2902 71.8232 34.7249 71.8232 33.7297C71.8518 32.5724 73.2069 31.5228 75.0521 31.5228C77.127 31.5228 78.6546 32.5724 78.8569 33.9985L80.9615 33.4598C80.413 31.254 78.1359 29.719 75.0807 29.719C71.9672 29.719 69.7186 31.4683 69.6901 33.8374C69.6901 35.8289 70.9869 36.9585 74.0135 37.5505L76.3204 37.9814C78.77 38.439 79.8372 39.0843 79.8372 40.134C79.8372 41.5334 78.0788 42.5297 75.8005 42.5297C73.2069 42.5297 71.2462 41.2102 71.0737 39.3265L68.912 39.7308C69.1713 42.6375 72.1694 44.3868 75.8005 44.3868Z" fill="#333333"/>
<path d="M90.3295 44.3868C92.8089 44.3868 95.0277 42.9329 95.4323 40.5649L93.6441 39.8652C93.3562 41.6145 92.0011 42.6097 90.5318 42.6097C88.9459 42.6097 87.937 41.5068 87.937 39.9729V31.9526H94.4519V30.2577H87.937V25.7361L85.7455 26.2215V30.2577H82.5464V31.9526H85.7455V40.1884C85.7455 42.6641 87.5908 44.3868 90.3295 44.3868Z" fill="#333333"/>
<path d="M101.744 44.3868C104.339 44.3868 106.357 43.3094 107.394 41.5878H107.424L107.453 42.2065C107.54 43.4449 108.433 44.3868 109.845 44.3868C110.969 44.3868 112.181 43.8214 112.785 42.9873L111.604 41.6956C111.286 42.1798 110.826 42.5031 110.422 42.5031C109.961 42.5031 109.643 42.1254 109.643 41.5878V34.6982C109.643 31.6572 107.02 29.719 103.302 29.719C99.5256 29.719 96.7 31.8182 96.4406 34.0518L98.4298 34.8326C98.5452 33.2177 100.476 31.5761 103.215 31.5761C105.751 31.5761 107.481 32.6801 107.481 34.375C107.481 34.967 107.02 35.3435 106.3 35.4246L102.696 35.8289C97.9682 36.3665 96.1241 38.1158 96.1241 40.2961C96.1241 42.7174 98.4298 44.3868 101.744 44.3868ZM102.119 42.5297C99.9003 42.5297 98.3144 41.6412 98.3144 40.2683C98.3144 39.031 99.4102 37.9814 102.927 37.5771L107.424 37.0662V38.0347C107.424 40.6726 105.176 42.5297 102.119 42.5297Z" fill="#333333"/>
<mask id="mask5_2149_366" style="mask-type:luminance" maskUnits="userSpaceOnUse" x="109" y="9" width="4" height="4">
<path d="M109.726 9.77661H112.772V12.9043H109.726V9.77661Z" fill="white"/>
</mask>
<g mask="url(#mask5_2149_366)">
<mask id="mask6_2149_366" style="mask-type:luminance" maskUnits="userSpaceOnUse" x="97" y="1" width="32" height="44">
<path d="M97.2015 2.78139L127.102 1.66626L128.908 43.8559L99.0075 44.971L97.2015 2.78139Z" fill="white"/>
</mask>
<g mask="url(#mask6_2149_366)">
<mask id="mask7_2149_366" style="mask-type:luminance" maskUnits="userSpaceOnUse" x="97" y="1" width="32" height="44">
<path d="M127.169 1.66284L97.2694 2.77798L99.0754 44.9687L128.975 43.8536L127.169 1.66284Z" fill="white"/>
</mask>
<g mask="url(#mask7_2149_366)">
<path d="M109.727 11.377C109.758 12.1112 110.422 12.6821 111.207 12.6532C111.993 12.6232 112.606 12.0046 112.574 11.2704C112.543 10.5362 111.88 9.96533 111.094 9.99421C110.308 10.0242 109.695 10.6429 109.727 11.377Z" fill="#F69807"/>
</g>
</g>
</g>
<mask id="mask8_2149_366" style="mask-type:luminance" maskUnits="userSpaceOnUse" x="93" y="0" width="39" height="27">
<path d="M93 0H132V26.3189H93V0Z" fill="white"/>
</mask>
<g mask="url(#mask8_2149_366)">
<mask id="mask9_2149_366" style="mask-type:luminance" maskUnits="userSpaceOnUse" x="92" y="-1" width="42" height="54">
<path d="M92.5626 1.177L130.85 -0.181152L133.162 51.2027L94.8752 52.5609L92.5626 1.177Z" fill="white"/>
</mask>
<g mask="url(#mask9_2149_366)">
<mask id="mask10_2149_366" style="mask-type:luminance" maskUnits="userSpaceOnUse" x="92" y="-1" width="42" height="54">
<path d="M130.937 -0.185303L92.6498 1.17285L94.9624 52.5581L133.249 51.1999L130.937 -0.185303Z" fill="white"/>
</mask>
<g mask="url(#mask10_2149_366)">
<mask id="mask11_2149_366" style="mask-type:luminance" maskUnits="userSpaceOnUse" x="92" y="-1" width="41" height="28">
<path d="M130.883 -0.183105L92.5674 1.1764L93.7054 26.4713L132.021 25.1118L130.883 -0.183105Z" fill="white"/>
</mask>
<g mask="url(#mask11_2149_366)">
<mask id="mask12_2149_366" style="mask-type:luminance" maskUnits="userSpaceOnUse" x="92" y="-1" width="41" height="28">
<path d="M130.883 -0.183105L92.6207 1.17369L93.7587 26.4686L132.021 25.1118L130.883 -0.183105Z" fill="white"/>
</mask>
<g mask="url(#mask12_2149_366)">
<path d="M109.921 10.9071C109.921 10.9071 108.703 15.5145 112.18 18.8342C112.18 18.8342 108.685 17.5166 107.669 14.991C107.669 14.991 104.104 19.9218 107.082 25.9807C107.082 25.9807 100.291 21.3367 103.492 14.3377C103.492 14.3377 97.0993 18.5677 97.4527 24.4007C97.4527 24.4007 92.2243 14.4175 106.074 9.6017C106.074 9.6017 97.6508 10.7826 93.2572 15.3414C93.2572 15.3414 95.9659 7.39944 104.975 7.23846C104.975 7.23846 102.535 5.08355 99.3906 5.35545C99.3906 5.35545 104.288 3.98106 107.75 6.74065C107.75 6.74065 109.889 -1.8222 122.99 0.754773C122.99 0.754773 113.633 2.74601 111.676 7.64158C111.676 7.64158 124.401 0.0648751 128.499 8.96727C128.499 8.96727 122.975 6.44035 116.218 8.60203C116.218 8.60203 127.873 9.06872 131.654 16.9417C131.654 16.9417 127.88 14.2808 122.259 13.5923C116.433 12.878 111.08 10.6257 111.08 10.6257L109.921 10.9071Z" fill="#16594A"/>
</g>
</g>
</g>
</g>
</g>
<mask id="mask13_2149_366" style="mask-type:luminance" maskUnits="userSpaceOnUse" x="92" y="45" width="35" height="8">
<path d="M92.546 45.49H126.016V53H92.546V45.49Z" fill="white"/>
</mask>
<g mask="url(#mask13_2149_366)">
<path d="M126.004 47.2729C125.173 47.012 124.196 46.7983 123.111 46.7127C122.738 46.6784 122.351 46.6655 121.955 46.6655C120.289 46.6655 118.462 46.948 116.521 47.5035C115.832 47.7044 115.254 47.8884 114.712 48.0724C114.156 48.2646 113.574 48.4783 112.863 48.7479C111.574 49.2475 110.246 49.7908 109.121 50.2566L108.983 50.3079C107.801 50.7831 106.579 51.2704 105.397 51.6722C104.806 51.8813 104.197 52.0694 103.593 52.2365C102.935 52.4246 102.366 52.5614 101.837 52.6639C100.753 52.8864 99.6862 52.997 98.6687 52.997C97.5889 52.997 96.5665 52.8735 95.6247 52.6208C94.4553 52.3262 93.4293 51.8516 92.5934 51.3642C93.4202 51.621 94.3935 51.8388 95.4685 51.9203C95.842 51.9541 96.2288 51.9715 96.624 51.9715C98.291 51.9715 100.118 51.6845 102.06 51.1289C102.704 50.9409 103.3 50.7528 103.868 50.5606C104.504 50.3382 105.13 50.1029 105.717 49.8851C107.006 49.3843 108.326 48.8416 109.459 48.3758L109.663 48.2902C110.823 47.8284 112.023 47.3498 113.179 46.9561C113.805 46.7383 114.414 46.5462 114.987 46.3878C115.672 46.1956 116.232 46.0629 116.743 45.9598C117.827 45.7379 118.894 45.6267 119.911 45.6267C120.991 45.6267 122.014 45.7548 122.955 46.0029C124.133 46.3022 125.164 46.7808 126.004 47.2729Z" fill="#97CECC"/>
</g>
<mask id="mask14_2149_366" style="mask-type:luminance" maskUnits="userSpaceOnUse" x="82" y="41" width="47" height="10">
<path d="M82 41.3577H128.432V50.8982H82V41.3577Z" fill="white"/>
</mask>
<g mask="url(#mask14_2149_366)">
<path d="M127 46.6575C126.961 46.6366 126.814 46.5341 126.556 46.3885C126.262 46.2092 125.827 45.9698 125.279 45.7084C124.174 45.1872 122.6 44.6311 120.706 44.4861C118.817 44.3237 116.612 44.5886 114.248 45.2641C113.657 45.4353 113.058 45.6187 112.449 45.8243C111.841 46.0333 111.224 46.2604 110.603 46.4951C109.365 46.9702 108.106 47.4833 106.842 48.0004C105.582 48.5006 104.323 49.0054 103.08 49.4241C102.464 49.6378 101.846 49.83 101.238 49.9971C100.63 50.1677 100.03 50.3174 99.4388 50.4286C98.8654 50.5439 98.3002 50.6341 97.7485 50.6895C97.7485 50.6895 97.7396 50.6895 97.7267 50.6935C97.6968 50.6982 97.6362 50.7023 97.554 50.711C97.5023 50.7151 97.4547 50.7197 97.403 50.7238C97.3213 50.732 97.222 50.7366 97.1139 50.7407C97.0363 50.7454 96.9547 50.7494 96.8636 50.7494C96.7861 50.7535 96.6997 50.7535 96.6133 50.7535C96.4282 50.7576 96.2214 50.7576 96.0011 50.7494C95.9494 50.7494 95.8977 50.7454 95.846 50.7454C95.7596 50.7407 95.6732 50.7366 95.5828 50.732C95.5052 50.7279 95.4229 50.7238 95.3454 50.7197C95.2114 50.7063 95.0781 50.6982 94.9359 50.6807C94.5945 50.651 94.232 50.6039 93.8483 50.5357C93.5851 50.4926 93.3137 50.4414 93.0334 50.3773C92.8389 50.3348 92.6409 50.2877 92.4382 50.2318C92.4294 50.2318 92.4247 50.2318 92.4206 50.2277C89.0904 49.3513 84.9018 47.1024 82.0157 41.5059C82.2878 41.921 86.5022 48.1844 93.4776 48.8726C95.2549 48.9582 97.2825 48.6846 99.4388 48.0685C99.5211 48.0429 99.6027 48.0219 99.685 47.9963C100.194 47.8466 100.716 47.6842 101.238 47.5042C101.846 47.2952 102.464 47.0681 103.08 46.8375C104.323 46.3582 105.582 45.8452 106.842 45.3281C108.106 44.8279 109.365 44.319 110.603 43.9044C111.224 43.6866 111.841 43.4944 112.449 43.3273C113.058 43.1561 113.657 43.0071 114.248 42.8912C116.612 42.4125 118.817 42.4422 120.706 42.9383C122.6 43.417 124.174 44.3452 125.279 45.1697C125.827 45.5803 126.262 45.9698 126.556 46.2348C126.814 46.4695 126.961 46.6197 127 46.6575Z" fill="#12908E"/>
</g>
<mask id="mask15_2149_366" style="mask-type:luminance" maskUnits="userSpaceOnUse" x="82" y="39" width="21" height="9">
<path d="M82.0092 39.0247H102.308V47.428H82.0092V39.0247Z" fill="white"/>
</mask>
<g mask="url(#mask15_2149_366)">
<path d="M82 38.9097C82 38.9097 82.0545 38.9813 82.1562 39.1146C82.2572 39.2492 82.4086 39.446 82.6053 39.6882C82.9945 40.1744 83.5756 40.8534 84.3376 41.597C84.7135 41.9732 85.1536 42.3488 85.6148 42.7442C86.0894 43.1273 86.6051 43.5093 87.1535 43.8826C87.7055 44.2518 88.3017 44.593 88.9161 44.9208C89.5419 45.2458 90.1708 45.5189 90.8584 45.7652C91.5025 45.9987 92.1973 46.1775 92.8789 46.3067C93.5647 46.4244 94.2493 46.5036 94.9181 46.5344C95.5864 46.5507 96.2371 46.5501 96.8545 46.5082C97.4719 46.4651 98.0566 46.4057 98.5959 46.3329C99.6733 46.1821 100.573 46.0127 101.2 45.8869C101.831 45.7623 102.191 45.6907 102.191 45.6907C102.191 45.6907 102.106 45.7244 101.946 45.7862C101.785 45.8461 101.554 45.9451 101.25 46.0505C100.647 46.2683 99.7738 46.5606 98.6921 46.8151C98.1522 46.9432 97.559 47.0614 96.9229 47.1435C96.2873 47.2303 95.6082 47.2833 94.9024 47.2873C94.1972 47.2774 93.463 47.2454 92.7276 47.1191C91.9915 46.9886 91.2616 46.8163 90.5298 46.5589C89.847 46.305 89.1406 45.9882 88.502 45.6429C87.8556 45.2941 87.2564 44.8941 86.6934 44.4894C85.5767 43.666 84.6548 42.7622 83.9581 41.9225C83.253 41.0887 82.7687 40.3253 82.457 39.7796C82.2948 39.5094 82.1925 39.2876 82.1156 39.1385C82.0399 38.9894 82 38.9097 82 38.9097Z" fill="#97CECC"/>
</g>
<path d="M0 21.7528H13V19.4696H2.4301V0H0V21.7528Z" fill="#333333"/>
</svg>
